<?xml version="1.0" encoding="iso-8859-1"?>
<!-- Generator: Adobe Illustrator 19.0.0, SVG Export Plug-In . SVG Version: 6.00 Build 0)  -->
<svg xmlns="http://www.w3.org/2000/svg" xmlns:xlink="http://www.w3.org/1999/xlink" version="1.1" id="Capa_1" x="0px" y="0px" viewBox="0 0 511 511" style="enable-background:new 0 0 511 511;" xml:space="preserve" width="512px" height="512px">
<g>
	<path d="M207,39.5C207,17.72,189.28,0,167.5,0S128,17.72,128,39.5c0,19.216,13.795,35.262,32,38.777V120h-8.5   c-8.547,0-15.5,6.953-15.5,15.5v24c0,8.547,6.953,15.5,15.5,15.5h8.5v9h-24.5c-4.142,0-7.5,3.358-7.5,7.5s3.358,7.5,7.5,7.5H160   v9.909c-13.759,3.375-24,15.806-24,30.591s10.241,27.216,24,30.591V280h-8.5c-4.142,0-7.5,3.358-7.5,7.5s3.358,7.5,7.5,7.5h8.5v9   h-8.5c-8.547,0-15.5,6.953-15.5,15.5v24c0,8.547,6.953,15.5,15.5,15.5h8.5v10.234c-9.29,3.138-16,11.93-16,22.266   s6.71,19.127,16,22.266V424h-8.5c-4.142,0-7.5,3.358-7.5,7.5s3.358,7.5,7.5,7.5h8.5v64.5c0,4.142,3.358,7.5,7.5,7.5   s7.5-3.358,7.5-7.5V439h8.5c4.142,0,7.5-3.358,7.5-7.5s-3.358-7.5-7.5-7.5H175v-10.234c9.29-3.138,16-11.93,16-22.266   s-6.71-19.127-16-22.266V359h8.5c8.547,0,15.5-6.953,15.5-15.5v-24c0-8.547-6.953-15.5-15.5-15.5H175v-9h8.5   c4.142,0,7.5-3.358,7.5-7.5s-3.358-7.5-7.5-7.5H175v-9.909c13.759-3.375,24-15.806,24-30.591s-10.241-27.216-24-30.591V199h24.5   c4.142,0,7.5-3.358,7.5-7.5s-3.358-7.5-7.5-7.5H175v-9h8.5c8.547,0,15.5-6.953,15.5-15.5v-24c0-8.547-6.953-15.5-15.5-15.5H175   V78.277C193.205,74.762,207,58.716,207,39.5z M167.505,400c-0.002,0-0.003,0-0.005,0s-0.003,0-0.005,0   c-4.685-0.003-8.495-3.814-8.495-8.5c0-4.683,3.807-8.493,8.488-8.5c0.004,0,0.008,0,0.012,0s0.008,0,0.012,0   c4.681,0.007,8.488,3.816,8.488,8.5C176,396.186,172.19,399.997,167.505,400z M184,319.5v24c0,0.275-0.224,0.5-0.5,0.5h-32   c-0.276,0-0.5-0.225-0.5-0.5v-24c0-0.275,0.224-0.5,0.5-0.5h32C183.776,319,184,319.225,184,319.5z M184,239.5   c0,9.093-7.394,16.491-16.486,16.499c-0.005,0-0.01,0-0.014,0s-0.01,0-0.014,0C158.394,255.991,151,248.593,151,239.5   c0-9.098,7.402-16.5,16.5-16.5S184,230.402,184,239.5z M184,135.5v24c0,0.275-0.224,0.5-0.5,0.5h-15.976   c-0.008,0-0.016-0.001-0.024-0.001S167.484,160,167.476,160H151.5c-0.276,0-0.5-0.225-0.5-0.5v-24c0-0.275,0.224-0.5,0.5-0.5h32   C183.776,135,184,135.225,184,135.5z M143,39.5c0-13.509,10.991-24.5,24.5-24.5S192,25.991,192,39.5S181.009,64,167.5,64   S143,53.009,143,39.5z" fill="#F53357"/>
	<path d="M375.5,120H351V78.277c18.205-3.515,32-19.561,32-38.777C383,17.72,365.28,0,343.5,0S304,17.72,304,39.5   c0,19.216,13.795,35.262,32,38.777V120h-24.5c-4.142,0-7.5,3.358-7.5,7.5s3.358,7.5,7.5,7.5H336v9h-8.5   c-8.547,0-15.5,6.953-15.5,15.5v24c0,8.547,6.953,15.5,15.5,15.5h8.5v10.234c-9.29,3.138-16,11.93-16,22.266s6.71,19.127,16,22.266   V264h-8.5c-4.142,0-7.5,3.358-7.5,7.5s3.358,7.5,7.5,7.5h8.5v9h-8.5c-8.547,0-15.5,6.953-15.5,15.5v24   c0,8.547,6.953,15.5,15.5,15.5h8.5v9.909c-13.759,3.375-24,15.806-24,30.591s10.241,27.216,24,30.591V424h-16.5   c-4.142,0-7.5,3.358-7.5,7.5s3.358,7.5,7.5,7.5H336v64.5c0,4.142,3.358,7.5,7.5,7.5s7.5-3.358,7.5-7.5V439h16.5   c4.142,0,7.5-3.358,7.5-7.5s-3.358-7.5-7.5-7.5H351v-9.909c13.759-3.375,24-15.806,24-30.591s-10.241-27.216-24-30.591V343h8.5   c8.547,0,15.5-6.953,15.5-15.5v-24c0-8.547-6.953-15.5-15.5-15.5H351v-9h8.5c4.142,0,7.5-3.358,7.5-7.5s-3.358-7.5-7.5-7.5H351   v-10.234c9.29-3.138,16-11.93,16-22.266s-6.71-19.127-16-22.266V199h8.5c8.547,0,15.5-6.953,15.5-15.5v-24   c0-8.547-6.953-15.5-15.5-15.5H351v-9h24.5c4.142,0,7.5-3.358,7.5-7.5S379.642,120,375.5,120z M319,39.5   c0-13.509,10.991-24.5,24.5-24.5S368,25.991,368,39.5S357.009,64,343.5,64S319,53.009,319,39.5z M360,383.5   c0,9.097-7.399,16.497-16.495,16.5c-0.002,0-0.003,0-0.005,0s-0.003,0-0.005,0c-9.096-0.003-16.495-7.403-16.495-16.5   c0-9.098,7.402-16.5,16.5-16.5S360,374.402,360,383.5z M360,303.5v24c0,0.275-0.224,0.5-0.5,0.5h-32c-0.276,0-0.5-0.225-0.5-0.5   v-24c0-0.275,0.224-0.5,0.5-0.5h32C359.776,303,360,303.225,360,303.5z M343.5,240c-4.687,0-8.5-3.813-8.5-8.5s3.813-8.5,8.5-8.5   s8.5,3.813,8.5,8.5S348.187,240,343.5,240z M360,159.5v24c0,0.275-0.224,0.5-0.5,0.5h-32c-0.276,0-0.5-0.225-0.5-0.5v-24   c0-0.275,0.224-0.5,0.5-0.5h32C359.776,159,360,159.225,360,159.5z" fill="#F53357"/>
	<path d="M295,39.5C295,17.72,277.28,0,255.5,0S216,17.72,216,39.5c0,19.216,13.795,35.262,32,38.777v42.632   c-13.759,3.375-24,15.806-24,30.591s10.241,27.216,24,30.591V192h-16.5c-4.142,0-7.5,3.358-7.5,7.5s3.358,7.5,7.5,7.5H248v9h-8.5   c-8.547,0-15.5,6.953-15.5,15.5v24c0,8.547,6.953,15.5,15.5,15.5h8.5v9h-24.5c-4.142,0-7.5,3.358-7.5,7.5s3.358,7.5,7.5,7.5H248   v10.234c-9.29,3.138-16,11.93-16,22.266s6.71,19.127,16,22.266V360h-8.5c-8.547,0-15.5,6.953-15.5,15.5v24   c0,8.547,6.953,15.5,15.5,15.5h8.5v9h-8.5c-4.142,0-7.5,3.358-7.5,7.5s3.358,7.5,7.5,7.5h8.5v64.5c0,4.142,3.358,7.5,7.5,7.5   s7.5-3.358,7.5-7.5V439h8.5c4.142,0,7.5-3.358,7.5-7.5s-3.358-7.5-7.5-7.5H263v-9h8.5c8.547,0,15.5-6.953,15.5-15.5v-24   c0-8.547-6.953-15.5-15.5-15.5H263v-10.234c9.29-3.138,16-11.93,16-22.266s-6.71-19.127-16-22.266V295h24.5   c4.142,0,7.5-3.358,7.5-7.5s-3.358-7.5-7.5-7.5H263v-9h8.5c8.547,0,15.5-6.953,15.5-15.5v-24c0-8.547-6.953-15.5-15.5-15.5H263v-9   h16.5c4.142,0,7.5-3.358,7.5-7.5s-3.358-7.5-7.5-7.5H263v-9.909c13.759-3.375,24-15.806,24-30.591s-10.241-27.216-24-30.591V78.277   C281.205,74.762,295,58.716,295,39.5z M272,375.5v24c0,0.275-0.224,0.5-0.5,0.5h-15.961c-0.013,0-0.026-0.002-0.039-0.002   S255.474,400,255.461,400H239.5c-0.276,0-0.5-0.225-0.5-0.5v-24c0-0.275,0.224-0.5,0.5-0.5h32C271.776,375,272,375.225,272,375.5z    M255.5,336c-4.687,0-8.5-3.813-8.5-8.5s3.813-8.5,8.5-8.5s8.5,3.813,8.5,8.5S260.187,336,255.5,336z M272,231.5v24   c0,0.275-0.224,0.5-0.5,0.5h-15.976c-0.008,0-0.016-0.001-0.024-0.001S255.484,256,255.476,256H239.5c-0.276,0-0.5-0.225-0.5-0.5   v-24c0-0.275,0.224-0.5,0.5-0.5h15.947c0.018,0,0.035,0.003,0.053,0.003s0.035-0.003,0.053-0.003H271.5   C271.776,231,272,231.225,272,231.5z M231,39.5c0-13.509,10.991-24.5,24.5-24.5S280,25.991,280,39.5S269.009,64,255.5,64   S231,53.009,231,39.5z M272,151.5c0,9.098-7.402,16.5-16.5,16.5s-16.5-7.402-16.5-16.5s7.402-16.5,16.5-16.5S272,142.402,272,151.5   z" fill="#F53357"/>
</g>
<g>
</g>
<g>
</g>
<g>
</g>
<g>
</g>
<g>
</g>
<g>
</g>
<g>
</g>
<g>
</g>
<g>
</g>
<g>
</g>
<g>
</g>
<g>
</g>
<g>
</g>
<g>
</g>
<g>
</g>
</svg>
