<?xml version="1.0" encoding="iso-8859-1"?>
<!-- Generator: Adobe Illustrator 19.0.0, SVG Export Plug-In . SVG Version: 6.00 Build 0)  -->
<svg xmlns="http://www.w3.org/2000/svg" xmlns:xlink="http://www.w3.org/1999/xlink" version="1.1" id="Capa_1" x="0px" y="0px" viewBox="0 0 463.001 463.001" style="enable-background:new 0 0 463.001 463.001;" xml:space="preserve" width="512px" height="512px">
<g>
	<path d="M383.501,112h-9.013c-2.865-21.246-17.879-40.745-43.018-55.533c-15.121-8.895-33.002-15.534-52.469-19.637V23.5   c0-12.958-10.542-23.5-23.5-23.5h-48c-12.958,0-23.5,10.542-23.5,23.5v13.33c-19.467,4.102-37.348,10.742-52.469,19.637   C106.393,71.255,91.378,90.754,88.514,112h-9.013c-4.142,0-7.5,3.358-7.5,7.5s3.358,7.5,7.5,7.5h0.5v8.5   c0,7.039,3.115,13.36,8.033,17.67c0.697,23.496,16.075,45.232,43.497,61.363c5.827,3.428,12.086,6.499,18.666,9.241   l-22.039,110.193c-0.003,0.016-0.006,0.031-0.009,0.047l-24.003,120.015c-0.812,4.062,1.822,8.013,5.884,8.825   c0.497,0.099,0.991,0.147,1.479,0.147c3.502,0,6.633-2.465,7.347-6.031L141.649,343h179.703l8.674,43.369   c-15.165,5.521-26.025,20.081-26.025,37.131c0,21.78,17.72,39.5,39.5,39.5s39.5-17.72,39.5-39.5   c0-21.326-16.99-38.747-38.144-39.466l-10.005-50.023c-0.003-0.014-0.006-0.028-0.008-0.042l-22.039-110.195   c6.58-2.742,12.838-5.814,18.666-9.241c27.422-16.131,42.8-37.867,43.497-61.363c4.919-4.311,8.033-10.632,8.033-17.67V127h0.5   c4.142,0,7.5-3.358,7.5-7.5S387.643,112,383.501,112z M199.001,23.5c0-4.687,3.813-8.5,8.5-8.5h48c4.687,0,8.5,3.813,8.5,8.5   v10.737c-10.54-1.464-21.422-2.237-32.5-2.237s-21.96,0.772-32.5,2.237V23.5z M139.137,69.396   C163.689,54.954,196.491,47,231.501,47s67.812,7.954,92.364,22.396c20.149,11.852,32.462,26.76,35.429,42.604H103.708   C106.675,96.156,118.988,81.248,139.137,69.396z M368.001,423.5c0,13.509-10.991,24.5-24.5,24.5s-24.5-10.991-24.5-24.5   s10.991-24.5,24.5-24.5S368.001,409.991,368.001,423.5z M318.352,328H144.649l19.797-98.985   c20.406,6.518,43.301,9.985,67.054,9.985s46.649-3.468,67.054-9.985L318.352,328z M323.865,201.604   C299.313,216.046,266.51,224,231.501,224s-67.812-7.954-92.364-22.396c-20.149-11.852-32.462-26.76-35.429-42.604h255.585   C356.327,174.844,344.013,189.752,323.865,201.604z M368.001,135.5c0,4.687-3.813,8.5-8.5,8.5h-256c-4.687,0-8.5-3.813-8.5-8.5V127   h273V135.5z" fill="#F53357"/>
	<path d="M338.2,418.2c-1.4,1.39-2.2,3.33-2.2,5.3c0,1.97,0.8,3.91,2.2,5.3c1.39,1.4,3.32,2.2,5.3,2.2s3.91-0.8,5.3-2.2   c1.4-1.39,2.2-3.33,2.2-5.3c0-1.97-0.8-3.91-2.2-5.3c-1.39-1.4-3.33-2.2-5.3-2.2C341.531,416,339.591,416.8,338.2,418.2z" fill="#F53357"/>
	<path d="M309.457,80.824C288.268,69.975,260.583,64,231.501,64c-4.142,0-7.5,3.358-7.5,7.5s3.358,7.5,7.5,7.5   c26.75,0,52.007,5.39,71.119,15.176c1.095,0.56,2.262,0.826,3.413,0.826c2.725,0,5.354-1.491,6.682-4.083   C314.602,87.231,313.143,82.712,309.457,80.824z" fill="#F53357"/>
	<path d="M198.282,66.654c-5.714,0.945-11.338,2.153-16.717,3.59c-4.001,1.069-6.379,5.18-5.31,9.182   c0.896,3.353,3.927,5.566,7.241,5.566c0.641,0,1.292-0.083,1.941-0.256c4.912-1.312,10.057-2.417,15.293-3.283   c4.086-0.676,6.851-4.537,6.175-8.624C206.23,68.744,202.373,65.979,198.282,66.654z" fill="#F53357"/>
</g>
<g>
</g>
<g>
</g>
<g>
</g>
<g>
</g>
<g>
</g>
<g>
</g>
<g>
</g>
<g>
</g>
<g>
</g>
<g>
</g>
<g>
</g>
<g>
</g>
<g>
</g>
<g>
</g>
<g>
</g>
</svg>
