<?xml version="1.0" encoding="iso-8859-1"?>
<!-- Generator: Adobe Illustrator 19.0.0, SVG Export Plug-In . SVG Version: 6.00 Build 0)  -->
<svg xmlns="http://www.w3.org/2000/svg" xmlns:xlink="http://www.w3.org/1999/xlink" version="1.1" id="Capa_1" x="0px" y="0px" viewBox="0 0 511 511" style="enable-background:new 0 0 511 511;" xml:space="preserve" width="512px" height="512px">
<g>
	<path d="M363.809,76.372C335.213,27.123,296.748,0,255.5,0s-79.713,27.123-108.309,76.372C119.339,124.339,104,187.955,104,255.5   s15.339,131.161,43.191,179.128C175.787,483.877,214.252,511,255.5,511s79.713-27.123,108.309-76.372   C391.661,386.661,407,323.045,407,255.5S391.661,124.339,363.809,76.372z M350.837,427.096C325.038,471.53,291.179,496,255.5,496   s-69.538-24.47-95.337-68.904C133.619,381.382,119,320.441,119,255.5s14.619-125.882,41.163-171.596   C185.962,39.47,219.821,15,255.5,15s69.538,24.47,95.337,68.904C377.381,129.618,392,190.559,392,255.5   S377.381,381.382,350.837,427.096z" fill="#F7365A"/>
	<path d="M272.117,238.883c-31.895-31.895-66.805-58.843-100.958-77.93c-2.93-1.637-6.59-1.129-8.962,1.244   c-2.373,2.373-2.881,6.033-1.244,8.962c19.088,34.153,46.036,69.064,77.93,100.958c31.895,31.895,66.805,58.843,100.958,77.93   c1.147,0.641,2.407,0.953,3.657,0.953c1.942,0,3.862-0.753,5.306-2.197c2.373-2.373,2.881-6.033,1.244-8.962   C330.959,305.688,304.011,270.777,272.117,238.883z M249.49,261.51c-22.634-22.634-42.675-46.79-59.017-71.037   c24.247,16.342,48.403,36.382,71.037,59.017c22.634,22.634,42.675,46.79,59.017,71.037   C296.28,304.185,272.124,284.145,249.49,261.51z" fill="#F7365A"/>
	<path d="M292.317,150.683c-26.897-26.897-56.344-49.626-85.158-65.73c-2.93-1.637-6.59-1.129-8.962,1.244   c-2.373,2.373-2.881,6.033-1.244,8.962c16.104,28.814,38.833,58.262,65.73,85.158c26.897,26.897,56.344,49.626,85.158,65.73   c1.147,0.641,2.407,0.953,3.657,0.953c1.942,0,3.862-0.753,5.306-2.197c2.373-2.373,2.881-6.033,1.244-8.962   C341.943,207.027,319.214,177.579,292.317,150.683z M273.29,169.711c-17.331-17.331-32.845-35.721-45.84-54.261   c18.54,12.995,36.93,28.509,54.261,45.84s32.845,35.721,45.84,54.261C309.011,202.556,290.621,187.042,273.29,169.711z" fill="#F7365A"/>
	<path d="M248.317,330.683c-26.897-26.897-56.344-49.626-85.158-65.73c-2.93-1.637-6.59-1.129-8.962,1.244   c-2.373,2.373-2.881,6.033-1.244,8.962c16.104,28.814,38.833,58.262,65.73,85.158c26.897,26.897,56.344,49.626,85.158,65.73   c1.147,0.641,2.407,0.953,3.657,0.953c1.942,0,3.862-0.753,5.306-2.197c2.373-2.373,2.881-6.033,1.244-8.962   C297.943,387.027,275.214,357.579,248.317,330.683z M229.29,349.711c-17.331-17.331-32.845-35.721-45.84-54.261   c18.54,12.995,36.93,28.509,54.261,45.84s32.845,35.721,45.84,54.261C265.011,382.556,246.621,367.042,229.29,349.711z" fill="#F7365A"/>
	<path d="M366.846,173.662c-7.276-35.013-19.249-66.204-34.623-90.2c-2.235-3.489-6.875-4.502-10.361-2.269   c-3.488,2.234-4.504,6.873-2.269,10.361c14.397,22.472,25.659,51.92,32.566,85.16c0.736,3.541,3.856,5.976,7.335,5.976   c0.506,0,1.019-0.052,1.534-0.158C365.084,181.688,367.688,177.718,366.846,173.662z" fill="#F7365A"/>
	<path d="M234.392,459.609c-19.433-8.19-37.346-27.397-51.8-55.546c-1.892-3.685-6.412-5.139-10.098-3.246   c-3.685,1.892-5.138,6.413-3.246,10.098c16.085,31.323,36.597,52.94,59.319,62.516c0.951,0.401,1.938,0.591,2.909,0.591   c2.926,0,5.707-1.724,6.915-4.589C239.999,465.616,238.208,461.218,234.392,459.609z" fill="#F7365A"/>
	<path d="M169.438,373.018c-1.741-5.016-3.39-10.245-4.902-15.542c-1.137-3.983-5.29-6.29-9.271-5.153   c-3.983,1.137-6.29,5.288-5.153,9.271c1.589,5.564,3.323,11.062,5.155,16.342c1.076,3.099,3.979,5.043,7.085,5.043   c0.816,0,1.646-0.134,2.459-0.417C168.724,381.204,170.795,376.931,169.438,373.018z" fill="#F7365A"/>
	<path d="M283.773,54.954c4.978,2.858,9.907,6.509,14.649,10.853c1.439,1.318,3.254,1.969,5.063,1.969   c2.03,0,4.054-0.819,5.533-2.435c2.798-3.054,2.589-7.799-0.465-10.596c-5.555-5.088-11.379-9.394-17.313-12.8   c-3.592-2.062-8.176-0.822-10.238,2.77C278.941,48.307,280.181,52.891,283.773,54.954z" fill="#F7365A"/>
</g>
<g>
</g>
<g>
</g>
<g>
</g>
<g>
</g>
<g>
</g>
<g>
</g>
<g>
</g>
<g>
</g>
<g>
</g>
<g>
</g>
<g>
</g>
<g>
</g>
<g>
</g>
<g>
</g>
<g>
</g>
</svg>
