<?xml version="1.0" encoding="iso-8859-1"?>
<!-- Generator: Adobe Illustrator 19.1.0, SVG Export Plug-In . SVG Version: 6.00 Build 0)  -->
<svg xmlns="http://www.w3.org/2000/svg" xmlns:xlink="http://www.w3.org/1999/xlink" version="1.1" id="Capa_1" x="0px" y="0px" viewBox="0 0 34.32 34.32" style="enable-background:new 0 0 34.32 34.32;" xml:space="preserve" width="512px" height="512px">
<g>
	<path d="M27.004,16.398c-0.001-0.001-0.001-0.002-0.002-0.002c-0.002-0.001-0.004-0.001-0.006-0.002   c-0.229-0.115-0.477-0.193-0.74-0.229V2.403C26.256,1.078,25.178,0,23.852,0h-4.906c-0.37,0-0.712,0.198-0.895,0.52   c-0.183,0.321-0.181,0.716,0.008,1.034c0.257,0.436,0.05,0.931-0.253,1.205c-0.203,0.186-0.626,0.438-1.168,0.048   c-0.359-0.261-0.845-0.261-1.204-0.002c-0.36,0.259-0.515,0.719-0.383,1.142c0.227,0.732-0.316,1.066-0.56,1.175   c-0.286,0.129-0.904,0.251-1.189-0.219c-0.236-0.391-0.701-0.578-1.142-0.464c-0.44,0.115-0.753,0.507-0.768,0.962   c-0.009,0.085-0.216,0.373-0.677,0.588c-0.498,0.232-0.911,0.21-1.045,0.119C9.354,5.895,8.947,5.874,8.612,6.053   C8.275,6.231,8.065,6.581,8.065,6.962v9.202c-1.168,0.162-2.074,1.157-2.074,2.37v13.384c0,1.324,1.079,2.402,2.403,2.402h17.532   c1.325,0,2.402-1.078,2.402-2.402V18.534C28.329,17.598,27.786,16.794,27.004,16.398z M13.372,16.131H11.95v-0.987h1.422V16.131z    M17.872,16.131h-1.423v-0.987h1.423V16.131z M24.631,18.19l-2.035,3.181l-4.222-3.181H24.631z M22.399,16.131h-1.423v-0.987h1.423   V16.131z M17.052,5.074c0.277,0.016,0.551-0.024,0.82-0.09v1.59h-1.423V6.179C16.73,5.854,16.936,5.48,17.052,5.074z M11.722,7.789   c0.405-0.207,0.749-0.462,1.022-0.75C13.515,7.391,14.455,7.398,15.338,7c0.029-0.013,0.052-0.033,0.081-0.047V7.09   c0,0.283,0.232,0.515,0.515,0.515h2.453c0.285,0,0.515-0.231,0.515-0.515V4.503c0.099-0.071,0.2-0.136,0.294-0.221   c0.326-0.297,0.576-0.644,0.751-1.016V7.09c0,0.283,0.23,0.515,0.516,0.515h2.452c0.284,0,0.515-0.231,0.515-0.515V3.247   c0-0.283-0.231-0.515-0.515-0.515h-2.452c-0.162,0-0.3,0.079-0.394,0.195c0.095-0.283,0.162-0.573,0.169-0.867h3.615   c0.187,0,0.343,0.158,0.343,0.344v13.727h-0.767v-1.503c0-0.283-0.231-0.515-0.515-0.515h-2.452c-0.285,0-0.516,0.232-0.516,0.515   v1.503h-1.045v-1.503c0-0.283-0.229-0.515-0.515-0.515h-2.453c-0.283,0-0.515,0.232-0.515,0.515v1.503h-1.017v-1.503   c0-0.283-0.23-0.515-0.515-0.515h-2.453c-0.283,0-0.515,0.232-0.515,0.515v1.503h-0.795V8.228   C10.702,8.199,11.267,8.021,11.722,7.789z M20.977,6.574V3.763h1.423v2.812H20.977z M25.927,32.261H8.394   c-0.186,0-0.344-0.157-0.344-0.343V18.534c0-0.187,0.157-0.344,0.344-0.344h6.557l7.291,5.495c0.181,0.136,0.397,0.207,0.62,0.207   c0.061,0,0.122-0.005,0.182-0.016c0.283-0.051,0.531-0.218,0.686-0.458l2.54-3.969v12.468   C26.27,32.103,26.112,32.261,25.927,32.261z" fill="#F7365A"/>
	<path d="M15.934,13.261h2.453c0.285,0,0.515-0.232,0.515-0.516V8.903c0-0.284-0.229-0.515-0.515-0.515   h-2.453c-0.283,0-0.515,0.23-0.515,0.515v3.842C15.419,13.029,15.65,13.261,15.934,13.261z M16.449,9.418h1.423v2.812h-1.423V9.418   z" fill="#F7365A"/>
	<path d="M20.462,13.261h2.452c0.284,0,0.515-0.232,0.515-0.516V8.903c0-0.284-0.231-0.515-0.515-0.515   h-2.452c-0.285,0-0.516,0.23-0.516,0.515v3.842C19.946,13.029,20.177,13.261,20.462,13.261z M20.977,9.418h1.423v2.812h-1.423   V9.418z" fill="#F7365A"/>
	<path d="M11.435,13.261h2.453c0.284,0,0.515-0.232,0.515-0.516V8.903c0-0.284-0.23-0.515-0.515-0.515h-2.453   c-0.283,0-0.515,0.23-0.515,0.515v3.842C10.92,13.029,11.151,13.261,11.435,13.261z M11.95,9.418h1.422v2.812H11.95V9.418z" fill="#F7365A"/>
</g>
<g>
</g>
<g>
</g>
<g>
</g>
<g>
</g>
<g>
</g>
<g>
</g>
<g>
</g>
<g>
</g>
<g>
</g>
<g>
</g>
<g>
</g>
<g>
</g>
<g>
</g>
<g>
</g>
<g>
</g>
</svg>
