<?xml version="1.0" encoding="iso-8859-1"?>
<!-- Generator: Adobe Illustrator 19.0.0, SVG Export Plug-In . SVG Version: 6.00 Build 0)  -->
<svg xmlns="http://www.w3.org/2000/svg" xmlns:xlink="http://www.w3.org/1999/xlink" version="1.1" id="Layer_1" x="0px" y="0px" viewBox="0 0 512 512" style="enable-background:new 0 0 512 512;" xml:space="preserve" width="512px" height="512px">
<g transform="translate(1 1)">
	<g>
		<path d="M502.467,306.2h-34.133v-74.248c6.194,3.886,13.612,4.462,20.48,1.714c8.533-4.267,13.653-11.947,13.653-21.333v-19.627    c0-12.8-10.24-23.04-23.04-23.04h-28.16V108.82l9.387-5.714c0.853-0.853,1.707-0.853,2.56-0.853    c12.8,0,22.187-10.24,22.187-22.187V63.853c0-12.8-9.387-22.187-21.333-22.187h-38.249l-18.071-25.6    c-3.413-5.12-10.24-8.533-16.213-8.533c-5.973,0-12.8,3.413-16.213,8.533l-17.554,25.6h-61.728L271.213,7.533    C267.8,2.413,261.827-1,255-1c-5.973,0-12.8,3.413-16.213,8.533l-24.273,34.133h-61.763l-18.071-25.6    c-3.413-5.12-9.387-8.533-16.213-8.533c-5.973,0-12.8,3.413-16.213,8.533l-18.286,25.6H46.787c-12.8,0-22.187,9.387-22.187,22.187    v15.36c0,12.8,9.387,22.187,22.187,22.187c0.853,0,1.707,0,1.707,0.853l10.24,6.318v61.095h-28.16    c-12.8,0-23.04,10.24-23.04,23.04v19.627c0,9.387,5.12,17.067,14.507,21.333c6.556,2.622,13.611,2.21,19.627-1.211V306.2H7.533    c-5.12,0-8.533,3.413-8.533,8.533v34.133c0,5.12,3.413,8.533,8.533,8.533h180.025c3.86,19.681,20.878,34.133,41.841,34.133v15.36    c-12.978,7.931-22.3,20.736-24.879,35.84H175.64c-22.187,0-41.813,16.213-45.227,38.4l-2.194,12.8H101.4    c-5.12,0-8.533,3.413-8.533,8.533S96.28,511,101.4,511h23.893h259.413H408.6c5.12,0,8.533-3.413,8.533-8.533    s-3.413-8.533-8.533-8.533h-27.307l-2.56-12.8c-3.413-22.187-22.187-38.4-45.227-38.4h-28.027    c-2.58-15.104-11.901-27.909-24.879-35.84v-15.36c20.963,0,37.981-14.452,41.841-34.133h180.025c5.12,0,8.533-3.413,8.533-8.533    v-34.133C511,309.613,507.587,306.2,502.467,306.2z M280.6,129.56c1.707-0.853,2.56-1.707,4.267-2.56l17.92-10.24    c11.947-7.68,28.16-7.68,40.96,0l17.92,11.093c18.773,11.093,41.813,11.093,59.733,0l12.8-8.533v50.347H280.6V129.56z     M388.973,26.307c0.853-1.707,1.707-1.707,2.56-1.707c0.853,0,1.707,0,3.413,1.707l11.093,15.36h-28.16L388.973,26.307z     M252.44,17.773c0.853-1.707,1.707-1.707,2.56-1.707s1.707,0,3.413,1.707l17.067,23.893h-40.107L252.44,17.773z M115.907,26.307    c0.853-1.707,1.707-1.707,2.56-1.707s1.707,0,3.413,1.707l11.093,15.36h-28.16L115.907,26.307z M46.787,84.333    c-3.413,0-5.12-1.707-5.12-4.267V63.853c0-3.413,1.707-5.12,5.12-5.12h40.96h61.44h69.12h73.387h69.973h60.587h40.96    c3.413,0,5.12,1.707,5.12,5.12v15.36c0,3.413-1.707,5.12-5.12,5.12s-7.68,0.853-11.093,3.413l-10.502,6.48    c-1.11,0.16-2.191,0.56-3.151,1.2l-26.453,16.213c-11.947,7.68-28.16,7.68-40.96,0l-17.92-11.093    c-18.773-11.093-41.813-11.093-59.733,0l-17.067,11.093c-0.853,0-3.413,0.853-5.973,1.707c-4.267,0.853-6.827,4.267-6.827,8.533    v1.707V178.2v8.533c0,5.12-3.413,8.533-8.533,8.533s-8.533-3.413-8.533-8.533V178.2v-54.613v-0.853c0-3.413-1.707-5.973-5.12-7.68    c0,0-2.56-0.853-3.413-1.707c-0.853,0-2.56-0.853-3.413-1.707l-17.92-11.093c-18.773-11.093-41.813-11.093-59.733,0l-17.92,11.093    c-11.947,7.68-28.16,7.68-40.96,0L71.533,95.427c-0.96-0.64-2.041-1.04-3.151-1.2l-10.502-6.48    C54.467,85.187,50.2,84.333,46.787,84.333z M75.8,119.102L88.6,127c18.773,11.093,41.813,11.093,59.733,0l17.92-11.093    c11.947-7.68,28.16-7.68,40.96,0L225.133,127c1.707,0.853,2.56,1.707,4.267,2.56v40.107H75.8V119.102z M33.987,216.6    c-2.56,1.707-5.12,1.707-5.973,0.853c-0.853,0-3.413-1.707-3.413-5.12v-19.627c0-3.413,2.56-5.973,5.973-5.973h36.693H229.4    c0,14.507,11.093,25.6,25.6,25.6c14.507,0,25.6-11.093,25.6-25.6h162.133h36.693c3.413,0,5.973,2.56,5.973,5.973v19.627    c0,3.413-2.56,4.267-3.413,5.12s-3.413,1.707-5.973-0.853c-3.366-3.366-7.797-5.383-12.449-6.093    c-1.107-0.472-2.369-0.733-3.764-0.733c-2.56,0-5.973,0.853-8.533,1.707c-3.413,1.707-5.12,2.56-7.68,5.12l-29.867,29.867    c-11.947,11.947-32.427,11.947-44.373,0L357.4,234.52c-18.773-18.773-49.493-18.773-68.267,0l-11.947,11.947    c-11.947,11.947-32.427,11.947-44.373,0l-11.947-11.947c-18.773-18.773-49.493-18.773-68.267,0l-11.947,11.947    c-0.853,0.853-2.56,2.56-4.267,3.413c-0.726,0.726-2.071,1.452-3.507,2.178c-0.253,0.127-0.506,0.255-0.76,0.382    c-3.413,1.707-5.12,4.267-5.12,7.68v11.947c0,5.12-3.413,8.533-8.533,8.533s-8.533-3.413-8.533-8.533V260.12    c0-3.413-2.56-5.973-5.12-7.68c-0.853-0.853-2.56-1.707-4.267-2.56c-0.316-0.158-0.629-0.351-0.94-0.556    c-1.151-0.844-2.241-1.771-3.327-2.857L66.413,216.6c-2.56-2.56-5.12-4.267-7.68-5.12c-0.095-0.032-0.198-0.063-0.295-0.094    c-2.629-1.041-5.432-1.612-8.238-1.612C44.227,209.773,38.253,211.48,33.987,216.6z M58.733,232.813l25.6,25.6    c2.56,2.56,5.12,5.12,8.533,6.827v6.827c0,14.507,11.093,25.6,25.6,25.6s25.6-11.093,25.6-25.6v-6.827    c3.413-1.707,5.973-4.267,8.533-6.827l11.947-11.947c11.947-11.947,32.427-11.947,44.373,0l11.947,11.947    C230.253,267.8,242.2,272.92,255,272.92s24.747-5.12,34.133-14.507l11.947-11.947c11.947-11.947,32.427-11.947,44.373,0    l11.947,11.947c9.387,9.387,21.333,14.507,34.133,14.507c12.8,0,24.747-5.12,34.133-14.507l25.6-24.889V306.2H58.733V232.813z     M362.52,484.547l1.707,9.387H145.773l0.853-9.387c2.56-14.507,14.507-24.747,29.013-24.747h36.693h85.333h35.84    C348.013,459.8,359.96,470.04,362.52,484.547z M267.8,419.693c10.24,4.267,17.067,12.8,19.627,23.04H221.72    c2.56-10.24,10.24-18.773,18.773-23.04c3.413-0.853,5.12-4.267,5.12-7.68v-20.48h17.067v20.48    C262.68,415.427,264.387,417.987,267.8,419.693z M280.6,374.467h-8.533h-34.133H229.4c-11.093,0-20.48-6.827-23.893-17.067h98.987    C301.08,367.64,291.693,374.467,280.6,374.467z M493.933,340.333h-179.2H195.267h-179.2v-17.067H50.2h409.6h34.133V340.333z" fill="#F7365A"/>
	</g>
</g>
<g>
</g>
<g>
</g>
<g>
</g>
<g>
</g>
<g>
</g>
<g>
</g>
<g>
</g>
<g>
</g>
<g>
</g>
<g>
</g>
<g>
</g>
<g>
</g>
<g>
</g>
<g>
</g>
<g>
</g>
</svg>
