<?xml version="1.0" encoding="iso-8859-1"?>
<!-- Generator: Adobe Illustrator 19.0.0, SVG Export Plug-In . SVG Version: 6.00 Build 0)  -->
<svg xmlns="http://www.w3.org/2000/svg" xmlns:xlink="http://www.w3.org/1999/xlink" version="1.1" id="Layer_1" x="0px" y="0px" viewBox="0 0 511.999 511.999" style="enable-background:new 0 0 511.999 511.999;" xml:space="preserve" width="512px" height="512px">
<g>
	<g>
		<path d="M502.555,207.15v-71.86c0-5.133-4.159-9.292-9.292-9.292H265.292v-16.6c16.014-4.137,27.877-18.706,27.877-35.993    c0-17.287-11.863-31.856-27.877-35.993V9.292c0-5.133-4.159-9.292-9.292-9.292c-5.133,0-9.292,4.159-9.292,9.292v28.118    c-16.014,4.137-27.877,18.706-27.877,35.993s11.863,31.856,27.877,35.993v16.6H18.736c-5.133,0-9.292,4.159-9.292,9.292v71.86    c0,5.133,4.159,9.292,9.292,9.292h14.305c-3.447,5.735-5.434,12.442-5.434,19.605c0,7.014,1.881,13.743,5.403,19.613H18.736    c-5.133,0-9.292,4.159-9.292,9.292v71.86c0,5.133,4.159,9.292,9.292,9.292h14.303c-3.446,5.735-5.432,12.442-5.432,19.605    c0,7.165,1.987,13.873,5.433,19.608H18.736c-5.133,0-9.292,4.159-9.292,9.292v71.86c0,5.133,4.159,9.292,9.292,9.292h227.971    v26.943c0,5.133,4.159,9.292,9.292,9.292c5.133,0,9.292-4.159,9.292-9.292v-26.941h227.971c5.133,0,9.292-4.159,9.292-9.292    v-71.86c0-5.133-4.159-9.292-9.292-9.292h-14.304c3.446-5.735,5.433-12.443,5.433-19.608c0-7.164-1.986-13.87-5.432-19.605h14.303    c5.133,0,9.292-4.159,9.292-9.292v-71.86c0-5.133-4.159-9.292-9.292-9.292h-14.306c3.447-5.736,5.434-12.447,5.434-19.613    c0-7.016-1.88-13.743-5.399-19.605h14.272C498.395,216.442,502.555,212.283,502.555,207.15z M237.415,73.404    c0-10.248,8.337-18.585,18.585-18.585c10.248,0,18.585,8.337,18.585,18.585c0,10.247-8.337,18.585-18.585,18.585    C245.752,91.989,237.415,83.653,237.415,73.404z M483.97,403.905v53.276H28.029v-53.276H483.97z M46.192,365.712    c0-10.795,8.771-19.579,19.561-19.605h380.493c10.79,0.026,19.561,8.809,19.561,19.605c0,10.813-8.797,19.608-19.608,19.608H65.8    C54.987,385.32,46.192,376.523,46.192,365.712z M483.97,274.246v53.276H28.029v-53.276h218.421l36.431,36.431    c1.815,1.814,4.194,2.721,6.571,2.721c2.378,0,4.756-0.907,6.572-2.721l36.431-36.431H483.97z M289.452,290.965l-74.515-74.517    h149.031L289.452,290.965z M390.251,216.448h55.942c5.245,0,10.171,2.039,13.872,5.741c3.702,3.701,5.741,8.623,5.741,13.859    c0,10.815-8.799,19.613-19.613,19.613h-95.154L390.251,216.448z M227.864,255.662H65.805c-5.245,0-10.171-2.039-13.865-5.734    c-3.706-3.714-5.748-8.643-5.748-13.879c0-10.808,8.799-19.599,19.613-19.599h122.847L227.864,255.662z M483.97,197.858H28.029    v-53.276H483.97V197.858z" fill="#F7365A"/>
	</g>
</g>
<g>
</g>
<g>
</g>
<g>
</g>
<g>
</g>
<g>
</g>
<g>
</g>
<g>
</g>
<g>
</g>
<g>
</g>
<g>
</g>
<g>
</g>
<g>
</g>
<g>
</g>
<g>
</g>
<g>
</g>
</svg>
