<svg width="51.956" height="55" viewBox="0 0 71 200" xmlns="http://www.w3.org/2000/svg"><title>Baby Corn</title><path d="M70.5 107.91c0-13.435-3.9-29.253-6.5-37.92-.867-3.684-1.95-6.068-2.167-6.718-2.6-24.92-8.668-51.354-16.468-60.022C43.415 1.083 41.248 0 39.08 0c-10.4.217-19.068 31.42-23.835 53.088-.866-6.067-2.383-9.534-3.467-11.7-.65-1.3-2.166-1.95-3.683-1.518-1.517.433-2.384 1.733-2.167 3.25.433 5.417.867 15.602-.217 22.97-5.2 30.768-5.85 64.138-3.466 77.572 4.767 27.302 13.868 34.886 24.486 41.17.65.433 1.516.867 2.383 1.083-.433 1.734-.216 3.9 1.084 6.068.216.433.433.65.433.65 0 .216-.217.433-.217.65-.216.433-.65 1.083-.866 1.95-.434 1.083 0 2.383 1.083 3.25 1.3 1.084 4.334 1.517 7.367 1.517 2.6 0 5.2-.433 6.718-1.3 1.3-.867 1.95-1.95 1.516-3.25-.215-1.3-.65-1.95-1.082-2.6-.217-.217-.217-.434-.433-.434v-.217c1.3-2.384 2.383-5.2.433-9.1.217-.218.433-.435.433-.65 23.837-11.486 24.92-63.923 24.92-74.54zm-5.85-15.602c.866 5.2 1.516 10.617 1.516 15.818 0 24.702-4.55 55.254-17.334 67.172.216-1.734.433-3.9.216-6.284-.65-7.8-3.467-13.65-7.15-19.068 3.9-6.5 18.85-31.203 22.752-57.638zM39.297 4.55c.867 0 1.95.217 3.034 1.3 9.318 10.185 16.902 55.038 16.686 83.207h-1.734c-1.95 0-3.683 2.384-3.683 4.334 0 1.95 1.732 4.335 3.682 4.335h1.734s-.217 1.733-.217 2.6c-.434 2.167-1.084 4.117-1.734 6.067h-1.084c-2.167 0-3.684 1.084-3.684 3.25 0 1.734 1.084 2.817 2.6 3.034-.216.65-.433.65-.65 1.3-.65-.433-1.3-1.3-2.166-1.3h-1.95c-1.95 0-3.684 2.384-3.684 4.334 0 1.95 1.733 4.333 3.684 4.333h1.516c-1.083 2.167-1.95 4.55-3.033 6.718-1.95 0-3.684 1.95-3.684 3.9 0 .65.218 1.518.65 2.168-.432 1.083-1.082 1.95-1.516 2.817-.216 0-.433-.217-.866-.217h-1.734c-1.95 0-4.117 2.6-4.117 4.55 0 1.517 1.084 2.817 2.384 3.467-.216.434-.433.867-.65 1.084-1.083-1.518-2.166-2.818-3.466-4.335-5.2-6.5-11.268-14.084-15.818-25.352-5.2-12.568-4.334-31.203-3.9-43.554v-.434C20.662 44.204 31.062 4.55 39.295 4.55zM6.36 143.012c-2.382-13-1.732-45.72 3.252-75.84.866-4.767.866-10.617.65-15.6.65 2.816 1.083 6.283 1.3 10.617.216 2.382 0 6.282-.217 10.616-.433 12.784-1.3 31.853 4.117 45.287 4.767 11.7 11.05 19.502 16.468 26.436 6.5 8.016 11.7 14.517 12.35 24.917.435 6.068-.866 9.968-3.9 11.918-3.9 2.384-9.533 1.084-11.7-.217-9.75-6.067-17.768-12.567-22.32-38.136zm35.104 52.004c0 .217.217.217.217.434-1.733.433-5.633.433-7.583 0v-.217c.867-1.517 1.3-3.034-.217-5.634-.65-1.084-.65-2.168-.65-2.818.65 0 1.3.217 1.95.217 2.167 0 4.334-.434 6.284-1.3.65 1.732.217 3.032-.65 4.333-1.083 2.166 0 3.9.65 4.983zm-10.4-21.668c.866.65 1.083 2.167.433 3.033-.434.65-1.084.868-1.734.868-.433 0-.866-.217-1.3-.433-17.985-13.868-19.5-40.954-19.5-42.037 0-1.3.865-2.6 2.165-2.6 1.084 0 2.167 1.3 2.167 2.383 0 .65 1.517 26.22 17.768 38.788zm23.4-71.29c0 1.95-1.732 4.334-3.682 4.334h-1.95c-1.95 0-3.684-2.383-3.684-4.333 0-1.952 1.733-4.335 3.684-4.335h1.95c1.95 0 3.683 2.383 3.683 4.334zm-19.5 0c0-1.95 1.733-4.333 3.683-4.333h1.734c1.95 0 3.684 2.383 3.684 4.334 0 1.95-1.733 4.332-3.683 4.332h-1.733c-1.95 0-3.683-2.383-3.683-4.333zm4.767-8.667c0-1.95 1.734-4.333 3.684-4.333h1.734c1.95 0 3.684 2.384 3.684 4.334 0 1.95-1.734 4.335-3.684 4.335h-1.734c-2.166 0-3.683-2.384-3.683-4.334zm17.12-7.583c0 1.734-1.518 3.25-3.25 3.25H51.43c-1.734 0-3.25-1.516-3.25-3.25 0-1.733 1.516-3.25 3.25-3.25H53.6c1.732 0 3.25 1.517 3.25 3.25zm-26.003 21.67c0 1.732-1.517 3.25-3.25 3.25H25.43c-1.734 0-3.25-1.518-3.25-3.25 0-1.735 1.516-3.252 3.25-3.252h2.166c1.734 0 3.25 1.517 3.25 3.25zm19.5-34.454c0 1.733-1.3 3.033-3.032 3.033h-.217c-1.733 0-3.034-1.3-3.034-3.033v-.217c0-1.733 1.3-3.034 3.034-3.034h.217c1.733 0 3.033 1.3 3.033 3.034v.217zm4.335-6.5c0 1.733-1.3 3.033-3.034 3.033h-.216c-1.734 0-3.034-1.3-3.034-3.034v-.216c0-1.734 1.3-3.034 3.034-3.034h.216c1.734 0 3.034 1.3 3.034 3.034v.216zm-11.268-7.368c0-1.734 1.517-3.25 3.25-3.25 1.734 0 3.25 1.516 3.25 3.25 0 1.733-1.516 3.25-3.25 3.25-1.733 0-3.25-1.517-3.25-3.25zm6.284 50.487c0 1.95-1.733 3.25-3.683 3.25H44.28c-1.95 0-3.682-1.3-3.682-3.25s1.733-3.25 3.683-3.25h1.735c1.95 0 3.683 1.3 3.683 3.25zm-5.634 11.918c1.95 0 3.684 1.3 3.684 3.25s-1.517 3.25-3.684 3.25h-1.95c-1.95 0-3.683-1.3-3.683-3.25s1.734-3.25 3.684-3.25h1.95zm-11.917 0h1.733c1.95 0 3.684 1.3 3.684 3.25s-1.517 3.25-3.684 3.25h-1.733c-1.95 0-3.684-1.3-3.684-3.25s1.517-3.25 3.684-3.25zm.867-4.334c0-1.95 1.733-4.333 3.683-4.333h1.734c1.95 0 3.684 2.383 3.684 4.333 0 1.95-1.733 4.334-3.683 4.334h-1.733c-1.95 0-3.683-2.383-3.683-4.334zm9.967 15.168c0 1.95-1.732 4.334-3.683 4.334h-1.733c-1.95 0-3.684-2.383-3.684-4.334 0-1.95 1.734-4.333 3.684-4.333h1.733c2.167 0 3.684 2.384 3.684 4.334zm5.2-86.89c0-1.517 1.302-2.817 2.818-2.817 1.517 0 2.817 1.3 2.817 2.817 0 1.517-1.3 2.817-2.817 2.817-1.516 0-2.817-1.3-2.817-2.816z" fill="#DA3939" fill-rule="evenodd"/></svg>