<svg width="70.654" height="55" viewBox="0 0 198 89" xmlns="http://www.w3.org/2000/svg"><title>Barbeque Chicken</title><g fill="#DA3939" fill-rule="evenodd"><path d="M191.46 54.63l-1.942.868c-15.15 6.778-18.998 3.554-19.03 3.556l-.186-.222c-6.59-6.95-13.073-13.054-19.27-18.143l-2.823 3.435c6.034 4.953 12.36 10.907 18.8 17.696 1.063 1.294 6.02 5.423 22.368-1.417l2.15 4.3c-11.68 3.667-62.27 18.954-94.182 18.954-32.047 0-80.34-13.2-91.18-16.285l1.92-5.765c5.62 1.37 21.505 4.858 32.4 3.316 16.586-2.33 25.075-13.4 32.564-23.167 6.947-9.058 12.944-16.88 24.03-17.925 8.612-.814 16.746.533 25.593 4.228l1.017-2.435c.103-.074.218-.116.31-.21 4.097-4.188 9.475-8.86 11.122-9.304 2.63.306 6.47-1.78 7.273-4.73.327-1.21.533-4.08-3.827-6.233-1.48-4.63-4.355-4.863-5.595-4.71-3 .347-5.61 3.767-5.756 6.388-1.007 1.924-8.66 8.32-15.353 13.28-.016.01-.023.03-.038.042-5.062-.962-10.09-1.222-15.165-.742-13.017 1.23-20.197 10.59-27.14 19.647-7.313 9.533-14.873 19.393-29.657 21.47C27.61 62.233 7.41 56.85 7.207 56.795l-2.025-.544L.487 70.34l2.2.652c.575.17 57.905 17.107 94.656 17.107 36.785 0 95.54-19.146 98.022-19.96l2.446-.8-6.35-12.71zm-59.8-47.58c.033-.712 1.268-2.19 1.795-2.208.118.056.427.396.747 1.254-.163.68 0 1.415.477 1.97l.428.5c.478.554 1.2.836 1.878.763.798.44 1.087.786 1.125.88-.093.56-1.728 1.563-2.442 1.49-2.537-.433-7.537 3.13-14.844 10.605-.065.066-.09.153-.147.224-1.084-.383-2.164-.736-3.24-1.052 14.29-10.896 14.242-13.442 14.222-14.43z"/><path d="M86.732 62.934c-2.59-1.022-7.982-1.198-11.182 5.062-1.836 3.587-10.627 3.585-13.556 3.3-1.21-.115-2.307.778-2.427 1.996-.12 1.218.772 2.307 1.992 2.427.392.04 1.605.14 3.243.14 4.478 0 12.116-.784 14.702-5.844 2.1-4.11 5.103-3.146 5.654-2.924.12.05.246.093.372.124 14.125 3.367 20.38-4.582 20.643-4.92.497-.65.595-1.524.255-2.27-.34-.743-1.064-1.243-1.88-1.294-9.953-.638-16.293-3.44-20.924-5.487-4.907-2.173-9.538-4.213-12.778 1.636-3.987 7.196-11.994 8.863-12.074 8.88-1.202.232-1.987 1.396-1.755 2.6.23 1.205 1.4 1.985 2.6 1.763.41-.08 10.096-2.033 15.114-11.09 1.127-2.04 1.485-2.203 7.094.277 3.735 1.65 9.004 3.98 16.487 5.19-2.565 1.025-6.36 1.643-11.583.434zM138.855 26.505c-.135-.605-.515-1.127-1.055-1.438-.536-.31-1.176-.387-1.774-.2-.582.182-14.327 4.482-19.61 9.03-3.088 2.657-5.6 6.57-6.72 10.47-1.44 5.018-.517 9.774 2.597 13.39 2.653 3.086 6.306 4.717 10.56 4.717 5.578 0 10.71-2.704 13.653-5.236 5.28-4.542 11.587-17.493 11.854-18.042.533-1.104.073-2.43-1.03-2.967-.204-.1-.39-.21-.586-.316 5.685-5.578 12.054-11.205 13.93-11.883 2.595.24 6.366-1.83 7.16-4.74.328-1.21.535-4.08-3.825-6.232-1.48-4.63-4.357-4.86-5.597-4.71-2.998.345-5.607 3.763-5.756 6.38-.93 1.76-7.424 7.266-13.724 12.06-.045-.152-.073-.257-.078-.283zm-5.25 27.362c-2.232 1.918-6.388 4.16-10.755 4.16-2.962 0-5.382-1.066-7.19-3.17-2.167-2.516-2.736-5.634-1.694-9.265.878-3.056 2.924-6.247 5.35-8.33 3.246-2.793 11.363-5.913 15.99-7.486 1.06 2.473 3.38 6.433 8.102 9.36-2.24 4.336-6.55 11.93-9.804 14.73zm23.49-38.91c.034-.712 1.27-2.19 1.796-2.206.12.057.428.397.748 1.255-.163.68 0 1.413.475 1.966l.43.5c.48.557 1.18.84 1.88.768.797.44 1.086.787 1.124.88-.092.562-1.736 1.553-2.443 1.49-1.01-.186-3.686-.58-18.033 13.686-.866-.822-1.562-1.662-2.122-2.465 16.176-12.134 16.167-14.852 16.147-15.872z"/></g></svg>