<svg width="51.956" height="55" viewBox="0 0 184 198" xmlns="http://www.w3.org/2000/svg"><title>Olive</title><g fill="#DA3939" fill-rule="evenodd"><path d="M127.667 57.75c-32.084 0-53.75-49.167-54.584-51.25-.416-1.25-.416-2.917.417-3.75.833-1.25 2.083-2.083 3.333-2.083 1.667 0 45.417.416 63.75 21.25 6.667 7.5 9.167 16.666 7.5 27.5 0 1.25-.833 2.083-2.083 2.916-6.25 3.334-12.083 5.417-18.333 5.417zM83.5 9c6.667 12.5 23.333 40 44.167 40 4.166 0 8.333-1.25 12.5-3.333.833-7.5-1.25-13.334-5.834-18.75C122.25 13.583 96 9.833 83.5 9zM62.25 197.75c-3.75 0-7.5-.833-10.417-2.5-8.75-4.583-14.583-15-15.416-29.167-.834-12.5 2.083-26.666 7.5-37.916 8.75-17.5 24.583-28.75 40.416-28.75 5 0 9.584 1.25 13.75 3.333 18.334 9.167 23.75 35.417 12.084 58.75-8.75 17.917-29.167 36.25-47.917 36.25zm22.083-90c-12.5 0-25.833 9.583-32.916 24.167-5 10-7.5 22.083-6.667 33.333.833 11.25 4.583 19.167 10.833 22.5 2.084.833 4.167 1.667 6.667 1.667 13.333 0 32.083-14.584 40.417-31.667 9.583-19.167 5.833-40.417-8.334-47.5-2.916-1.667-6.25-2.5-10-2.5z"/><path d="M156.833 167.333c-16.25 0-34.166-17.083-41.25-32.5-4.583-9.583-5.833-20.416-3.75-29.583 2.084-10 7.917-17.5 15.834-21.25 3.333-1.667 7.5-2.5 11.25-2.5 14.166 0 28.333 10.417 35.416 25.833 4.584 9.584 6.667 22.084 5.417 32.917-1.25 12.5-6.25 21.667-14.167 25-2.916 1.667-5.833 2.083-8.75 2.083zm-17.916-77.5c-2.917 0-5.417.417-7.917 1.667-5.833 2.5-9.583 7.917-11.25 15.417-1.667 7.5-.417 16.25 3.333 24.583 7.084 15 22.5 27.917 33.75 27.917 1.667 0 3.75-.417 5-1.25 5-2.5 8.75-9.167 9.584-18.334.833-9.583-.834-20-4.584-28.333C161 98.583 149.75 89.833 138.917 89.833zM4.333 107.75c-1.666 0-3.75-1.25-4.166-3.333-.417-2.084.833-4.584 2.916-5 .834 0 66.25-16.667 122.917-44.167 20.417-10 37.5-20 50.417-30 1.666-1.25 4.583-1.25 5.833.833 1.667 2.084 1.25 5-.417 6.25-13.75 10.417-31.25 20.834-52.083 30.834C72.25 90.667 6 107.75 5.583 107.75h-1.25z"/><path d="M129.333 91.917c-.416 0-1.25 0-1.666-.417-11.667-5.417-10.417-27.083-10-29.583 0-2.084 2.083-3.75 4.583-3.75 2.083 0 4.167 2.083 3.75 4.583-.417 5.833 0 18.75 5.417 21.25 2.083.833 2.916 3.333 2.083 5.417-1.25 1.666-2.5 2.5-4.167 2.5zM87.667 107.75c-1.667 0-2.917-.833-3.75-2.5-.834-2.083 0-4.583 2.083-5.417 5-2.5 5.833-15.416 5.417-21.25 0-2.083 1.666-4.166 3.75-4.583 2.5 0 4.166 1.667 4.583 3.75.417 2.5 1.667 24.167-10 29.583-.833.417-1.667.417-2.083.417z"/></g></svg>