<svg width="70.654" height="55" viewBox="0 0 200 200" xmlns="http://www.w3.org/2000/svg"><title>Chicken Tikka</title><path d="M86.966 199.865c-.632 0-1.263-.25-1.746-.747L64.006 177.2c-.463-.478-.723-1.126-.723-1.803s.26-1.326.724-1.804l3.622-3.742c1.083-1.12 2.525-1.75 4.06-1.774l20.602-.328 15.225-15.73-3.253-3.36c-3.665-3.787-3.665-9.948 0-13.735l.098-.102c3.666-3.785 9.628-3.785 13.293 0l3.254 3.363 8.174-8.447-3.253-3.362c-3.664-3.786-3.664-9.947 0-13.733l.1-.1c1.775-1.835 4.136-2.846 6.646-2.846s4.87 1.01 6.647 2.845l3.253 3.36 8.176-8.447-3.254-3.36c-3.664-3.787-3.664-9.95 0-13.735l.1-.102c3.664-3.786 9.627-3.786 13.292 0l3.253 3.36 8.176-8.446-3.254-3.36c-3.665-3.787-3.665-9.948 0-13.734l.1-.103c3.664-3.786 9.626-3.786 13.29 0l3.255 3.362 9.57-9.886c.963-.997 2.526-.997 3.49 0 .965.995.965 2.61 0 3.607l-9.567 9.885 3.253 3.36c3.665 3.787 3.665 9.95 0 13.735l-.1.102c-1.775 1.833-4.135 2.844-6.645 2.844s-4.87-1.01-6.646-2.845l-3.253-3.362-8.175 8.447 3.254 3.36c3.663 3.787 3.663 9.95 0 13.735l-.1.102c-3.665 3.787-9.63 3.787-13.293 0l-3.253-3.36-8.176 8.446 3.253 3.36c1.776 1.836 2.754 4.274 2.754 6.868 0 2.594-.978 5.033-2.753 6.867l-.098.103c-3.665 3.786-9.628 3.786-13.292 0l-3.254-3.362-8.176 8.447 3.254 3.363c3.664 3.786 3.664 9.947 0 13.733l-.1.103c-3.664 3.784-9.628 3.785-13.292 0l-3.253-3.362-15.934 16.46c-.453.47-1.066.737-1.707.747l-21.605.344c-.244.002-.472.103-.644.28l-1.875 1.938 17.722 18.31 2.143-2.215c.964-.996 2.527-.996 3.492 0 .964.997.964 2.612 0 3.608l-3.89 4.02c-.482.496-1.114.745-1.746.745zm24.043-62.783c-1.143 0-2.286.45-3.156 1.348l-.1.102c-.842.87-1.305 2.028-1.305 3.26 0 1.23.462 2.388 1.305 3.258l10 10.33c1.738 1.798 4.57 1.797 6.308 0l.1-.102c.842-.87 1.306-2.028 1.306-3.26 0-1.23-.465-2.388-1.308-3.258l-4.984-5.15-.015-.015-.014-.015-4.986-5.15c-.87-.9-2.013-1.348-3.155-1.348zm21.566-22.283c-1.143 0-2.285.448-3.155 1.347l-.098.102c-1.74 1.796-1.74 4.72 0 6.517l10 10.33c1.738 1.797 4.57 1.798 6.308 0l.1-.102c.842-.87 1.306-2.028 1.306-3.26 0-1.23-.464-2.388-1.307-3.258l-4.984-5.15-.016-.015-.016-.017-4.983-5.15c-.87-.897-2.012-1.346-3.154-1.346zm21.567-22.284c-1.142 0-2.284.45-3.154 1.348l-.1.102c-1.74 1.797-1.74 4.72 0 6.518l10 10.33c1.738 1.798 4.568 1.798 6.307 0l.1-.102c1.74-1.797 1.74-4.72 0-6.518l-10-10.33c-.87-.9-2.01-1.348-3.154-1.348zm21.567-22.282c-1.142 0-2.284.45-3.154 1.348l-.1.102c-1.738 1.797-1.738 4.72 0 6.518l10 10.33c.843.87 1.963 1.35 3.155 1.35 1.192 0 2.312-.48 3.155-1.35l.1-.102c1.738-1.797 1.738-4.72 0-6.518l-10-10.33c-.87-.9-2.012-1.348-3.155-1.348zM42.46 183.8c-.654 0-1.282-.27-1.746-.748L19.5 161.135c-.964-.997-.964-2.612 0-3.608l3.622-3.742c1.085-1.12 2.527-1.75 4.06-1.775l20.604-.328 15.225-15.73-3.253-3.36c-3.664-3.787-3.664-9.948 0-13.734l.097-.1c3.667-3.79 9.63-3.79 13.295-.002l3.252 3.36 8.176-8.446-3.253-3.36c-3.665-3.788-3.665-9.948 0-13.734l.097-.1c3.667-3.79 9.63-3.79 13.294-.003l3.254 3.362 8.176-8.447-3.254-3.36c-1.775-1.836-2.753-4.274-2.753-6.868 0-2.594.977-5.032 2.752-6.867l.097-.1c3.666-3.788 9.63-3.788 13.294-.002l3.253 3.363 8.176-8.447-3.253-3.362c-1.776-1.834-2.753-4.273-2.753-6.866 0-2.594.977-5.033 2.753-6.867l.096-.1c1.778-1.835 4.138-2.845 6.65-2.845 2.51 0 4.87 1.01 6.645 2.844l3.255 3.36 8.175-8.447-3.253-3.36c-1.775-1.835-2.753-4.274-2.753-6.868 0-2.593.978-5.032 2.753-6.866l.097-.1c3.667-3.79 9.63-3.79 13.295-.003l3.252 3.36 15.547-16.06c.963-.997 2.526-.997 3.49 0 .965.995.965 2.61 0 3.607l-15.546 16.06 3.253 3.363c3.665 3.786 3.665 9.947 0 13.733l-.1.105c-1.774 1.832-4.135 2.842-6.645 2.842s-4.87-1.01-6.646-2.845l-3.254-3.36-8.176 8.446 3.254 3.36c3.664 3.788 3.664 9.95 0 13.735l-.1.105c-1.775 1.83-4.135 2.84-6.645 2.84s-4.872-1.01-6.647-2.843l-3.253-3.36-8.176 8.446 3.252 3.362c3.665 3.786 3.665 9.947 0 13.734l-.1.104c-1.774 1.832-4.135 2.842-6.645 2.842s-4.87-1.01-6.646-2.844l-3.253-3.362-8.175 8.447 3.253 3.362c3.665 3.786 3.665 9.947 0 13.733l-.1.105c-3.664 3.784-9.627 3.784-13.292-.002l-3.253-3.36-8.176 8.447 3.253 3.36c3.665 3.787 3.665 9.948 0 13.734l-.1.106c-3.664 3.784-9.627 3.784-13.292-.002l-3.253-3.36-15.933 16.46c-.455.468-1.067.736-1.71.746l-21.602.344c-.244.003-.473.104-.645.282l-1.876 1.938 17.722 18.31 2.142-2.215c.964-.997 2.528-.997 3.492 0 .965.996.965 2.61 0 3.607l-3.89 4.018c-.46.476-1.09.744-1.743.744zm24.043-62.785c-1.143 0-2.285.45-3.155 1.348l-.097.1c-1.74 1.8-1.74 4.724 0 6.52l9.998 10.33c.842.872 1.963 1.35 3.154 1.35 1.192 0 2.312-.478 3.155-1.35l.1-.104c1.738-1.796 1.738-4.72 0-6.517l-4.98-5.144-.02-.022-.02-.02-4.98-5.145c-.87-.9-2.012-1.348-3.154-1.348zm28.312-3.984c1.74 1.798 4.57 1.798 6.31 0l.1-.103c1.737-1.795 1.737-4.72-.002-6.516l-4.98-5.144-.02-.02-.02-.02-4.978-5.145c-1.74-1.796-4.57-1.796-6.31 0l-.096.1c-1.743 1.8-1.743 4.724-.003 6.52l9.998 10.33zm14.822-40.582c-1.19 0-2.312.48-3.154 1.35l-.097.1c-1.74 1.8-1.74 4.723-.002 6.52l10 10.33c.842.87 1.962 1.35 3.153 1.35 1.192 0 2.312-.48 3.155-1.35l.1-.104c1.738-1.795 1.738-4.72 0-6.516l-4.98-5.145-.02-.02-.02-.02-4.98-5.145c-.843-.87-1.963-1.35-3.155-1.35zm21.568-22.28c-1.142 0-2.285.448-3.155 1.347l-.097.1c-1.74 1.8-1.74 4.723-.002 6.52l10 10.33c.843.872 1.963 1.35 3.155 1.35 1.192 0 2.312-.478 3.154-1.35l.1-.104c1.738-1.794 1.738-4.718-.002-6.515l-4.977-5.142-.02-.022c-.01-.007-.016-.015-.023-.022l-4.977-5.143c-.87-.898-2.013-1.348-3.155-1.348zm21.567-22.283c-1.142 0-2.285.45-3.155 1.348l-.097.1c-.845.872-1.308 2.03-1.308 3.26 0 1.232.463 2.39 1.306 3.26l10 10.33c.842.872 1.962 1.35 3.154 1.35s2.312-.478 3.154-1.35l.1-.104c1.74-1.796 1.74-4.72 0-6.517l-4.98-5.144-.02-.022-.02-.02-4.98-5.145c-.87-.9-2.012-1.348-3.154-1.348zM23.682 139.163c-.653 0-1.282-.27-1.745-.747L.723 116.498c-.964-.996-.964-2.612 0-3.608l3.622-3.742c1.085-1.12 2.527-1.75 4.06-1.775l20.604-.328 15.223-15.73-3.253-3.36c-3.665-3.787-3.665-9.948 0-13.734l.097-.1c1.778-1.835 4.138-2.846 6.648-2.846s4.87 1.01 6.647 2.845l3.253 3.36 8.176-8.447-3.252-3.36c-1.776-1.835-2.754-4.274-2.754-6.868 0-2.594.978-5.033 2.754-6.867l.096-.1c1.778-1.836 4.138-2.846 6.65-2.846 2.51 0 4.87 1.01 6.645 2.844l3.252 3.36 8.176-8.445-3.253-3.36c-1.775-1.835-2.753-4.274-2.753-6.867 0-2.594.978-5.033 2.753-6.867l.1-.102c3.664-3.787 9.628-3.786 13.292 0l3.253 3.36 8.176-8.446-3.254-3.36c-3.664-3.788-3.664-9.948 0-13.735l.1-.102c3.664-3.785 9.628-3.785 13.292 0l3.253 3.362 9.568-9.885c.965-.996 2.528-.996 3.492 0s.964 2.612 0 3.608l-9.568 9.885 3.252 3.36c1.776 1.835 2.754 4.274 2.754 6.868 0 2.594-.978 5.033-2.754 6.867l-.098.102c-3.665 3.786-9.628 3.786-13.293 0l-3.252-3.36-8.176 8.445 3.253 3.362c3.665 3.786 3.665 9.947 0 13.733l-.1.102c-3.664 3.786-9.626 3.786-13.292 0l-3.253-3.362-8.176 8.447 3.254 3.36c3.664 3.788 3.664 9.95 0 13.735l-.102.105c-3.662 3.784-9.625 3.784-13.29-.002l-3.253-3.362-8.176 8.448 3.253 3.36c3.665 3.788 3.665 9.95 0 13.735l-.1.105c-3.664 3.784-9.627 3.784-13.29-.002l-3.255-3.362-15.932 16.46c-.453.47-1.066.738-1.707.748l-21.604.344c-.244.003-.473.104-.645.282l-1.876 1.937 17.723 18.31 2.144-2.214c.963-.995 2.527-.995 3.49 0 .966.997.966 2.612 0 3.608l-3.887 4.02c-.464.476-1.092.745-1.747.745zm24.044-62.786c-1.192 0-2.312.48-3.155 1.35l-.096.1c-1.74 1.8-1.74 4.723-.002 6.52l10 10.33c1.738 1.797 4.57 1.797 6.308 0l.1-.105c1.74-1.794 1.74-4.718 0-6.515l-10-10.33c-.843-.87-1.963-1.35-3.154-1.35zm21.567-22.28c-1.142 0-2.284.448-3.154 1.347l-.098.1c-.845.872-1.31 2.03-1.31 3.26 0 1.232.465 2.39 1.308 3.26l10 10.33c1.738 1.797 4.568 1.797 6.308 0l.1-.104c1.738-1.795 1.738-4.72 0-6.516l-10-10.33c-.87-.9-2.013-1.348-3.155-1.348zM90.86 31.812c-1.142 0-2.284.45-3.154 1.348l-.1.104c-.842.87-1.306 2.028-1.306 3.26 0 1.23.464 2.387 1.307 3.258l10 10.33c1.738 1.797 4.568 1.797 6.307 0l.1-.102c1.738-1.797 1.738-4.72 0-6.518l-10-10.33c-.87-.9-2.01-1.35-3.154-1.35zM112.428 9.53c-1.143 0-2.285.45-3.155 1.35l-.1.1c-.842.872-1.305 2.03-1.305 3.26s.463 2.39 1.306 3.26l10 10.33c1.738 1.797 4.57 1.797 6.308 0l.1-.102c.842-.87 1.305-2.03 1.305-3.26s-.463-2.388-1.306-3.26l-9.998-10.33c-.87-.898-2.012-1.347-3.154-1.347z" fill="#9B9B9B" fill-rule="evenodd"/></svg>