<svg width="125" height="50" viewBox="0 0 125 98" xmlns="http://www.w3.org/2000/svg"><title>Imported Layers Copy 2</title><g fill="#9B9B9B" fill-rule="evenodd"><path d="M124.627 22.775c0-12.076-8.164-21.9-18.195-21.9-10.034 0-18.198 9.824-18.198 21.9 0 11.134 6.95 20.334 15.896 21.704v50.79c0 1.273 1.03 2.303 2.302 2.303 1.27 0 2.302-1.03 2.302-2.303V44.48c8.947-1.37 15.893-10.57 15.893-21.705zm-18.195 17.292c-7.494 0-13.593-7.758-13.593-17.292 0-9.537 6.098-17.295 13.592-17.295 7.492 0 13.59 7.758 13.59 17.295 0 9.534-6.098 17.292-13.59 17.292zM63.095.875C53.065.875 44.9 10.7 44.9 22.775c0 11.134 6.946 20.334 15.893 21.704v50.79c0 1.273 1.03 2.303 2.302 2.303 1.273 0 2.303-1.03 2.303-2.303V44.48c8.946-1.37 15.895-10.57 15.895-21.705 0-12.076-8.164-21.9-18.198-21.9zm0 39.192c-7.494 0-13.59-7.758-13.59-17.292 0-9.537 6.096-17.295 13.59-17.295s13.593 7.758 13.593 17.295c0 9.534-6.1 17.292-13.593 17.292zM18.787.875C8.757.875.592 10.7.592 22.775c0 11.134 6.946 20.334 15.893 21.704v50.79c0 1.273 1.03 2.303 2.302 2.303 1.273 0 2.302-1.03 2.302-2.303V44.48c8.946-1.37 15.895-10.57 15.895-21.705 0-12.076-8.164-21.9-18.198-21.9zm0 39.192c-7.494 0-13.59-7.758-13.59-17.292 0-9.537 6.096-17.295 13.59-17.295s13.59 7.758 13.59 17.295c0 9.534-6.096 17.292-13.59 17.292z"/></g></svg>