<svg xmlns="http://www.w3.org/2000/svg" width="51.956" height="55" viewBox="0 0 51.956 55"><path fill-rule="evenodd" clip-rule="evenodd" fill="#9B9B9B" d="M21.744 19.606l-3.034.364 4.158-9.427 2.965-.204-4.09 9.266zM10.404 5.612l4.93 2.174 2.4 1.058h.003l2.526 1.115-4.35 9.857-9.857-4.35 4.35-9.855zm5.015-.807l2.23.985-.058.13-2.48-1.093.307-.022zm7.105 3.135l-.304.02-2.23-.984.058-.13 2.477 1.094zm6.652 1.22c.004-.02.016-.034.018-.052v-.01c.022-.13.02-.262.003-.392-.005-.04-.018-.076-.026-.114-.02-.09-.05-.175-.09-.26-.02-.042-.038-.08-.062-.12-.016-.026-.025-.057-.043-.083-.034-.05-.08-.09-.12-.132-.03-.03-.054-.064-.086-.093-.09-.08-.193-.15-.304-.202-.01-.005-.02-.016-.03-.02l-7.33-3.234 1.15-2.615C22.55 1.175 22.25.4 21.59.11c-.66-.29-1.434.008-1.727.67L18.71 3.39l-2.53-1.114c-.194-.085-.406-.118-.618-.11l-5.917.41c-.103.007-.2.04-.296.072-.034.01-.07.01-.1.024-.15.06-.286.145-.402.252-.02.017-.03.042-.048.062-.093.096-.17.203-.23.323-.01.018-.025.028-.033.046L3.132 15.61c-.292.66.008 1.435.67 1.726l7.328 3.233L.112 45.545c-.292.66.008 1.435.67 1.727.172.075.35.11.526.11.504 0 .983-.29 1.2-.78l11.02-24.978 2.528 1.116c.172.077.35.112.526.112.052 0 .104-.003.157-.01l6.056-.726c.46-.055.856-.35 1.042-.773L29.104 9.41c.035-.08.055-.165.073-.25zM31.68 16.054l10.47-2.552L44.7 23.97l-2.684.655h-.003l-7.78 1.898-2.552-10.47zm3.488-3.693l2.37-.577.034.137-2.633.643.228-.202zm7.548-1.84l-.228.203-2.37.58-.034-.14 2.632-.642zm4.297 11.868l-2.44-10.01 2.224-1.968 2.4 9.843-2.184 2.135zm-.33 3.776c.08-.026.154-.065.23-.107.074-.04.143-.083.21-.138.024-.02.055-.03.078-.052l4.362-4.265c.33-.323.468-.796.358-1.247L48.828 7.682c-.02-.088-.058-.17-.096-.25-.007-.013-.008-.03-.016-.045 0-.004-.004-.005-.005-.008-.062-.12-.143-.222-.237-.314-.028-.03-.06-.05-.09-.076-.07-.058-.143-.107-.223-.15-.043-.02-.085-.042-.13-.06-.028-.01-.053-.028-.082-.037-.056-.018-.117-.02-.175-.03-.04-.008-.08-.02-.12-.022-.133-.01-.264 0-.392.03h-.015l-7.78 1.9-.678-2.776c-.172-.702-.872-1.135-1.583-.96-.702.17-1.133.878-.96 1.58l.676 2.776-2.686.655c-.206.05-.397.15-.557.29l-4.445 3.927c-.07.062-.115.14-.17.21-.028.04-.064.07-.09.112-.08.136-.134.283-.16.436-.005.03 0 .062-.003.093-.014.128-.01.257.015.386.004.017 0 .034.003.053L32 28.415c.08.338.295.63.592.81.207.125.443.19.68.19.105 0 .21-.013.312-.037l7.783-1.898L47.834 54c.143.6.68 1 1.268 1 .102 0 .208-.012.312-.037.703-.172 1.134-.88.963-1.583L43.91 26.86l2.686-.656c.03-.007.056-.03.086-.04z"/></svg>