<svg width="51.956" height="55" viewBox="0 0 200 151" xmlns="http://www.w3.org/2000/svg"><title>Golden Corn</title><path d="M189.537 61.074c2.295-2.477 3.585-5.692 3.585-9.05 0-7.41-6.028-13.437-13.437-13.437-1.138 0-2.268.155-3.38.457-.418-.857-.968-1.632-1.57-2.36 2-4.21 1.867-9.312-.875-13.484-2.823-4.298-7.913-6.658-13.043-6.085-2.422-3.185-6.097-5.125-10.094-5.38-.078-.198-.143-.398-.23-.593-2.288-5.075-7.363-8.352-12.93-8.352-2.013 0-3.968.42-5.815 1.252-.983.443-1.92 1.013-2.8 1.705-2.865-1.105-6.08-1.04-8.907.168-2.23-2.73-5.597-4.41-9.2-4.41-1.782 0-3.504.392-5.124 1.167-.388.185-.77.4-1.148.643-2.877-.905-5.972-.7-8.655.585-.215.102-.397.25-.605.365-1.28-1.525-2.89-2.745-4.8-3.475C89.142.267 87.715 0 86.262 0c-4.88 0-9.34 3.067-11.086 7.625-.158.402-.288.822-.398 1.262-1.065.518-2 1.218-2.852 2.005-.133-.217-.223-.452-.37-.662-2.223-3.18-5.865-5.078-9.743-5.078-2.438 0-4.783.738-6.788 2.138-2.785 1.945-4.435 4.882-4.9 8.002-.178-.007-.353-.037-.533-.037-1.783 0-3.506.392-5.126 1.167-.387.185-.77.4-1.147.643-2.878-.908-5.97-.7-8.655.585-2.863 1.367-5.017 3.77-6.072 6.762-.85 2.408-.863 4.96-.138 7.357-4.332 1.094-7.797 4.467-8.915 8.83C14.165 41.316 10 45.93 10 51.503c0 1.638.387 3.248 1.087 4.715-.977 1.287-1.702 2.764-2.095 4.38-.19.784-.295 1.574-.325 2.36H0c0 37.86 31.87 69.67 75 78.69v8.81h49.998v-8.81c43.13-9.02 75-40.83 75-78.69h-10.104c-.077-.634-.187-1.266-.357-1.886zM151.73 16.922c2.22.485 4.19 1.79 5.475 3.76.067.145.14.29.22.433.555.975 1.695 1.457 2.777 1.185 3.595-.903 7.47.592 9.478 3.65 1.522 2.315 1.767 5.08.972 7.53-2.272-1.083-4.9-1.468-7.567-.843-.725-1.213-1.643-2.268-2.678-3.18-2.675-3.187-6.71-4.985-10.892-4.89 1.445-2.272 2.22-4.93 2.215-7.645zm-23.607-6.042c.972.56 2.21.4 3.007-.395.823-.82 1.723-1.453 2.673-1.88 1.197-.538 2.46-.813 3.76-.813 3.602 0 6.89 2.123 8.37 5.408 1.295 2.877.98 6.075-.56 8.58-2.308-1.655-5.093-2.593-8.028-2.593-2.69 0-5.305.783-7.56 2.268-.262.172-.477.397-.727.585-1.383-2.97-3.688-5.295-6.535-6.64.29-1.668.242-3.36-.185-4.995 1.892-.688 4.02-.535 5.785.475zm-12.755 30.237c-.495-1.168-.675-2.353-.525-3.525.433-3.43 3.36-6.015 6.807-6.015.288 0 .58.017.875.055 2 .252 3.785 1.4 4.9 3.147.51.804 1.428 1.254 2.388 1.14.527-.06 1.07-.086 1.622-.013 1.823.23 3.445 1.155 4.57 2.605 1.125 1.45 1.618 3.252 1.39 5.075-.347 2.747-2.307 4.93-4.842 5.697-1.715-1.265-3.728-2.082-5.905-2.285-.445-.043-.878-.048-1.315-.04-1.993-2.25-4.737-3.666-7.725-3.948-.757-.07-1.497-.05-2.225.015.245-.603.248-1.29-.015-1.91zM98.073 8.415c.91-.435 1.883-.658 2.885-.658.995 0 2.013.225 2.94.65.86.398 1.88.268 2.62-.332.488-.395.92-.68 1.36-.89 3.335-1.595 7.59-.073 9.17 3.232.565 1.178.763 2.463.62 3.73-.355-.027-.705-.08-1.065-.08-1.707 0-3.385.315-4.99.94-.532.208-1.06.458-1.592.758-3.282-1.38-6.997-1.458-10.29-.175-.43.167-.81.41-1.214.615-.255-.373-.523-.743-.823-1.088.605-2.125.578-4.345-.022-6.457.136-.078.26-.178.403-.245zM96.683 24.9c.945-2.148 2.67-3.8 4.858-4.648.996-.387 2.036-.582 3.096-.582 1.49 0 2.985.392 4.327 1.137.828.463 1.85.413 2.638-.132.658-.458 1.236-.775 1.823-1.003 1.023-.397 2.093-.6 3.178-.6 3.653 0 6.868 2.2 8.193 5.608.227.587.382 1.185.477 1.785-.11.205-.235.402-.335.615-.585-.17-1.175-.325-1.79-.403-3.172-.4-6.177.518-8.542 2.275-1.875-2.645-4.935-4.397-8.417-4.397-2.81 0-5.443 1.127-7.365 3.087-.897-.28-1.83-.395-2.764-.425.117-.787.297-1.567.627-2.317zM73.57 17.06c.72-1.88 2.26-3.34 4.226-4.01.903-.308 1.553-1.103 1.675-2.048.08-.62.2-1.117.374-1.577 1.312-3.428 5.41-5.288 8.88-3.96 1.715.657 3.072 1.942 3.817 3.62.75 1.677.798 3.545.146 5.235-.03.055-.168.322-.193.38-.467 1.02-.197 2.225.663 2.95.55.465 1.01 1.002 1.38 1.587-.975 1.08-1.828 2.283-2.43 3.653-.448 1.015-.723 2.067-.915 3.132-2.24-2.89-5.694-4.615-9.374-4.615-1 0-1.975.155-2.927.398-1.386-1.923-3.27-3.398-5.454-4.25.05-.165.073-.333.135-.495zm-15.683-5.665c1.162-.81 2.52-1.238 3.927-1.238 2.247 0 4.357 1.098 5.645 2.94.67.963 1.05 2.053 1.17 3.178-.046.157-.09.317-.13.475-3.494.127-6.63 1.715-8.796 4.197-1.152-1.872-2.792-3.365-4.71-4.35.13-2.015 1.113-3.96 2.893-5.202zM33.31 26.08c.61-1.73 1.86-3.123 3.514-3.915.91-.435 1.883-.658 2.885-.658.994 0 2.012.225 2.94.65.86.398 1.88.27 2.62-.332.487-.395.92-.68 1.36-.89 3.332-1.598 7.587-.07 9.17 3.232.297.623.464 1.278.567 1.94-5.04 1-8.868 5.417-8.868 10.747v.15c-1.826-.52-3.856-.552-5.748-.057-1.818-2.808-4.695-4.715-7.978-5.34-.052-.095-.132-.173-.177-.27-.795-1.66-.898-3.527-.288-5.257zM13.684 62.96c.025-.394.072-.79.167-1.186.43-1.785 1.53-3.295 3.098-4.255 1.007-.616 2.16-.94 3.427-.968.898-.02 1.72-.52 2.145-1.313.6-1.116 1.415-1.993 2.425-2.608 1.083-.663 2.32-1.01 3.578-1.01 2.42 0 4.614 1.23 5.877 3.292 1.05 1.718 1.27 3.828.6 5.792-.265.775-.11 1.605.36 2.255H13.685zm14.84-16.338c-2.178 0-4.318.602-6.185 1.745-1.383.842-2.548 1.95-3.48 3.295-1.315.175-2.533.612-3.69 1.197-.1-.44-.17-.89-.17-1.356 0-3.47 3.072-6.217 6.48-5.97.677.065 1.33-.162 1.837-.602.505-.44.815-1.065.858-1.733.24-3.836 3.435-6.838 7.272-6.838 3.012 0 5.677 1.817 6.79 4.627.26.662.79 1.18 1.457 1.427.668.247 1.408.195 2.033-.135 2.615-1.383 6-.518 7.695 1.95-.8 1.347-1.39 2.825-1.68 4.422-1.248-.435-2.558-.692-3.905-.692-2.475 0-4.875.782-6.868 2.192-2.203-2.24-5.203-3.532-8.445-3.532zm12.862 16.34c-.168-.343-.298-.7-.5-1.03-.225-.366-.473-.726-.755-1.076.45-2.174.282-4.407-.465-6.457 2.56-1.893 6.422-1.826 8.81.367 1.485 1.362 2.277 3.33 2.177 5.402-.047.95.455 1.85 1.29 2.31.293.16.545.32.775.48H41.386zm14.392-3.95c-.053-.038-.096-.083-.15-.12-.208-2.733-1.376-5.263-3.253-7.233.05-.2.122-.396.122-.61 0-4.653 3.784-8.438 8.436-8.438 1.383 0 2.5-1.12 2.5-2.5s-1.117-2.5-2.5-2.5c-2.802 0-5.402.867-7.557 2.337-.57-.933-.88-1.986-.88-3.096 0-3.467 3.062-6.22 6.48-5.967.672.067 1.332-.163 1.836-.603.505-.44.815-1.064.858-1.732.24-3.835 3.435-6.837 7.272-6.837 2.113 0 4.043.907 5.398 2.412-4.525 3.695-5.723 10.155-2.755 15.185-1.006 1.882-1.536 3.94-1.636 6.012-3.823.86-7.093 3.565-8.525 7.305-.16.402-.29.822-.4 1.262-2.276 1.105-4.083 2.91-5.25 5.12zm3.797 3.95c.07-.303.13-.606.245-.903.72-1.88 2.26-3.34 4.224-4.01.903-.308 1.553-1.103 1.675-2.048.08-.62.2-1.118.374-1.578 1.312-3.427 5.41-5.287 8.88-3.96.84.323 1.59.8 2.23 1.395-.055.127-.125.244-.175.374-1.414 3.693-.83 7.648 1.18 10.73H59.578v-.003zm21.537-16.025c-.175.127-.33.277-.498.412-.18.144-.362.287-.53.44-.99-.823-2.085-1.526-3.322-1.998-.588-.225-1.19-.378-1.798-.508.13-1.632.668-3.245 1.668-4.642.657-.918.615-2.16-.098-3.035-.092-.115-.19-.223-.352-.393-2.17-3.11-1.408-7.402 1.702-9.574 1.163-.81 2.52-1.238 3.928-1.238 2.247 0 4.357 1.098 5.645 2.94 1.266 1.815 1.57 4.072.83 6.197-.166.47-.16.957-.046 1.414-2.863 1.488-5.188 3.97-6.38 7.088-.345.895-.578 1.84-.713 2.86-.01.015-.02.025-.036.035zm22.177 15.357c-.09.237-.224.447-.34.667H85.927c-.087-.026-.182-.026-.267-.06-1.33-.51-2.41-1.386-3.17-2.47-1.264-1.81-1.64-4.196-.794-6.408.715-1.865 2.063-2.93 3.068-3.493.752-.423 1.232-1.206 1.272-2.068.045-1.005.21-1.865.5-2.628 1.238-3.232 4.397-5.405 7.86-5.405 1.025 0 2.037.187 3.007.56 4.328 1.66 6.503 6.534 4.845 10.867-.065.167-.157.317-.242.472l-.195.364c-.464.895-.344 1.98.3 2.755 1.608 1.922 2.06 4.547 1.18 6.844zm4.368-15.347c-.672-4.658-3.772-8.828-8.47-10.628-1.54-.593-3.155-.89-4.795-.89-.277 0-.545.047-.82.064-.032-.027-.057-.06-.09-.09.168-.92.19-1.845.143-2.767 1.505-.643 3.272-.605 4.73.222 1.157.652 2.62.287 3.337-.83.99-1.55 2.673-2.475 4.5-2.475 2.275 0 4.208 1.437 4.975 3.444-.637 1.217-1.105 2.542-1.285 3.972-.202 1.602-.065 3.202.403 4.775-.753 1.255-1.215 2.61-1.46 4.022-.423.354-.798.764-1.168 1.177zm20.027 16.014H108.91c.18-.964.53-1.896 1.146-2.756.522-.732.612-1.69.235-2.507-.532-1.148-.747-2.328-.634-3.503.332-3.552 3.27-6.232 6.832-6.232.215 0 .435.01.653.03 2.008.187 3.828 1.277 5 2.99.54.785 1.473 1.2 2.42 1.062.53-.075 1.073-.115 1.623-.065 1.135.107 2.182.51 3.107 1.117-1.917 2.862-2.582 6.46-1.605 9.864zm27.73-2.84c-.343 1.1-.965 2.056-1.765 2.84h-20.585c-.015-.024-.037-.044-.05-.07-1.765-3.353-.472-7.518 2.878-9.286.972-.512 2.022-.772 3.12-.772.92 0 1.83.182 2.702.545.88.365 1.895.197 2.608-.435.47-.415.887-.713 1.32-.94 3.29-1.733 7.57-.375 9.287 2.88.855 1.622 1.03 3.485.485 5.237zm-.748-14.506c-.767.505-1.63.828-2.532 1.06-1.055-.302-2.16-.467-3.292-.467-1.915 0-3.825.475-5.53 1.37-.378.2-.753.427-1.12.685-.343-.095-.695-.123-1.043-.185.603-1.185 1.03-2.478 1.205-3.863.398-3.147-.455-6.26-2.4-8.767-1.942-2.505-4.747-4.105-7.895-4.503-.442-.055-.882-.082-1.315-.082-.432-.523-.917-.99-1.425-1.427.675-1.543 1.77-2.863 3.21-3.808 1.44-.945 3.105-1.445 4.818-1.445 2.972 0 5.72 1.48 7.36 3.995.067.145.14.29.22.433.555.972 1.69 1.457 2.777 1.185 3.595-.903 7.467.592 9.477 3.65 2.66 4.05 1.533 9.51-2.515 12.17zm4.968 17.347c.2-.444.407-.886.555-1.36.94-3.028.642-6.243-.835-9.048-.338-.643-.748-1.228-1.185-1.788 1.87-1.915 4.832-2.717 7.437-1.72 1.715.658 3.073 1.943 3.818 3.62.75 1.678.797 3.545.145 5.235-.03.054-.168.32-.193.38-.467 1.02-.197 2.224.66 2.95.595.5 1.08 1.09 1.468 1.73h-11.87zm25.42-4.508c-.838.7-1.12 1.865-.703 2.872.222.535.38 1.082.487 1.637h-7.893c-.485-1.546-1.28-3.003-2.372-4.26.762-2.676.565-5.503-.58-8.073-1.293-2.898-3.635-5.118-6.6-6.253-1.365-.522-2.793-.787-4.245-.787-.208 0-.41.037-.618.047.788-1.87 1.11-3.895 1.03-5.925.725-.238 1.408-.373 2.06-.373 3.233 0 6.063 2.302 6.728 5.475.157.76.665 1.405 1.365 1.74.7.337 1.515.327 2.212-.023 1.233-.626 2.498-.943 3.758-.943 4.652 0 8.437 3.785 8.437 8.437 0 2.45-1.118 4.793-3.068 6.428z" fill="#9B9B9B" fill-rule="evenodd"/></svg>