<svg width="54.219" height="55" viewBox="0 0 200 189" xmlns="http://www.w3.org/2000/svg"><title>Cheese Burst</title><path d="M124.88 51.637c.534-2.59-6.87-9.37-14.5-10.94-7.625-1.57-14.238-.738-14.77 1.85-.532 2.586 5.22 5.957 12.845 7.525 7.63 1.57 15.897 4.154 16.425 1.565zm17.518 33.756c-2.084 2.06 1.153 8.7 7.213 14.828 6.07 6.133 11.06 12.54 13.138 10.48 2.086-2.056.465-11.806-5.61-17.933-6.057-6.132-12.66-9.436-14.74-7.374zM117.96 68.465c-6.626-5.524-13.508-8.18-15.39-5.934-1.87 2.25 1.98 8.55 8.597 14.073 6.623 5.52 16.347 5.686 18.228 3.44 1.87-2.252-4.816-6.057-11.435-11.578zm-45.045-19.53c-8.605-.567-15.74 1.34-15.93 4.263-.192 2.92 6.626 5.75 15.23 6.318 8.607.57 15.738-1.34 15.932-4.26.194-2.922-6.626-5.752-15.232-6.32zm127.03 119.78l-3.38.138 3.374-.21c-.326-5.196-.453-11.47-2.73-20.298-2.274-8.837-6.653-20.235-15.366-36.25-.02-.036-.044-.07-.06-.11-12.746-27.256-34.835-65.585-67.29-88.498.244-1.64.413-3.477.413-5.44-.004-3.03-.37-6.31-1.523-9.42-1.138-3.083-3.195-6.095-6.52-7.894-.308-.165-.63-.28-.974-.35C105.716.35 103.826 0 100.7 0c-4.288-.002-10.948.666-18.687 3.75-.532-.023-1.298-.047-2.25-.047-5.162.058-15.758.525-23.923 6.178-3.33.364-14.162 1.874-23.004 8.26-.363-.025-.78-.04-1.255-.04-4.192-.003-12.757 1.112-26.05 7.76-.324.165-.603.38-.85.626-.944.537-1.806 1.278-2.47 2.22C.71 30.776.003 33.5 0 36.886c.01 4.758 1.392 10.98 4.86 19.413.36.87 1.058 1.542 1.94 1.874.015.004 6.334 2.378 17.104 6.793 23.583 9.672 68.326 29.1 113.306 54.317.027.292.064.58.064.88.005 7.793.784 14.08 1.935 18.62.59 2.282 1.25 4.12 2.094 5.626.435.753.91 1.44 1.62 2.08.683.617 1.742 1.278 3.174 1.29 1.692.006 3.015-1.03 3.658-1.907 1.007-1.362 1.41-2.776 1.784-4.57.343-1.798.552-3.966.614-6.63.058-2.878.686-4.935 1.32-6.004 1.24.738 2.483 1.464 3.723 2.212 1.597 3.313 3.14 9.363 3.075 18.364v.915c.004 4.11.672 7.91 1.748 10.927.556 1.514 1.186 2.83 2.088 3.996.875 1.078 2.18 2.365 4.426 2.432 1.857.01 3.35-1.136 4.128-2.227 1.243-1.692 1.855-3.69 2.407-6.5.52-2.81.865-6.402.977-11.038.03-1.264.147-2.353.31-3.202.5 1.022 1.057 2.46 1.527 4.306 1 3.72 1.852 9.062 2.235 16.123.406 7.316 1.464 12.626 3.03 16.427.794 1.9 1.716 3.448 2.936 4.68 1.18 1.2 2.863 2.126 4.738 2.126h.022c1.788 0 3.367-.83 4.475-1.88 3.25-3.234 4.584-8.47 4.675-15.53-.01-.667-.022-1.368-.05-2.085zM10.57 52.375c-2.846-7.19-3.815-12.285-3.804-15.49-.004-2.443.548-3.712.91-4.19.382-.466.45-.395.633-.426.095-.004.527.04 1.268.61 2.29 1.633 6.212 8.148 7.973 21.64.004.03.015.054.02.083.006.05.008.1.02.15.022.108.057.217.09.324.007.02.007.047.016.067.005.008.005.017.007.024-3.31-1.314-5.73-2.25-7.132-2.792zm12.968-4.02c-1.393-8.612-3.546-14.007-6.062-17.543-.566-.812-1.167-1.518-1.78-2.126 8.306-3.328 13.516-3.818 15.89-3.82.622 0 1.052.033 1.297.06.118.013.194.024.227.03.99.206 2.017-.04 2.808-.67 4.132-3.326 9.545-5.345 13.906-6.447 2.18-.556 4.09-.885 5.438-1.08.674-.095 1.206-.157 1.565-.195.354-.036.5-.044.5-.047.655-.046 1.3-.29 1.826-.69 5.754-4.535 15.902-5.428 20.62-5.368.822 0 1.476.02 1.92.04.442.02.632.04.632.038.532.042 1.068-.045 1.565-.247C90.97 7.355 97 6.763 100.71 6.763c1.31 0 2.332.073 3 .14l.388.047c1.31.863 2.255 2.19 2.956 4.038.766 2.033 1.098 4.6 1.093 7.058.003 1.498-.126 2.936-.305 4.206-5.37 1.046-18.887 3.796-34.176 7.806-17.554 4.644-37.256 10.77-50.128 18.297zm4.467 10.992l.43.12c1.55.44 3.114.898 4.7 1.392.15.046.302.097.456.146 1.524.48 3.063.98 4.61 1.512.25.084.5.167.748.254 1.614.554 3.242 1.137 4.88 1.736.308.114.615.232.925.343 1.683.63 3.377 1.272 5.085 1.95l.04.015c1.703.674 3.422 1.378 5.145 2.097.3.123.593.245.89.372 1.684.708 3.376 1.434 5.073 2.18l.88.39c1.685.748 3.377 1.505 5.07 2.282l.24.11c1.738.796 3.48 1.622 5.223 2.455.346.167.694.328 1.04.5 1.695.814 3.396 1.642 5.097 2.482.288.14.577.287.866.432 1.577.786 3.155 1.578 4.732 2.38.25.13.5.254.752.383 1.677.86 3.35 1.728 5.023 2.605.412.218.824.432 1.236.65 1.645.87 3.29 1.746 4.927 2.632.31.17.62.336.93.505 1.437.785 2.866 1.56 4.29 2.355.404.222.805.44 1.208.663 1.56.866 3.112 1.73 4.657 2.607.496.28.977.557 1.47.83 1.455.83 2.918 1.662 4.36 2.497.41.23.814.474 1.225.706 1.278.743 2.552 1.487 3.814 2.226.294.172.59.345.882.514-36.62-19.208-70.727-34.014-90.903-42.32zM191.757 179.71c-.332.767-.69 1.288-.93 1.553-.117-.118-.266-.296-.433-.543-1.345-1.83-3.086-7.17-3.527-16.102-.498-9.044-1.696-15.608-3.264-20.174-.792-2.282-1.663-4.08-2.763-5.515-1.077-1.375-2.587-2.73-4.914-2.775h-.046c-1.385 0-2.677.652-3.496 1.442-.296.283-.55.588-.777.895-.227.292-.414.604-.588.922-.005.005-.01.005-.01.014-.418.765-.72 1.578-.975 2.458-.447 1.63-.69 3.513-.746 5.693-.123 4.973-.54 8.562-1.05 10.837-.09-.278-.178-.56-.253-.868-.572-2.023-.96-4.66-.96-7.395 0-.02 0-.083.005-.194v-.716c-.005-5.083-.42-9.393-1.13-13.034-.006-.004-.006-.01-.006-.013-.138-.695-.285-1.374-.44-2.022l-.016-.062c-.152-.62-.32-1.23-.49-1.808-.047-.138-.087-.27-.134-.41-.14-.46-.287-.92-.438-1.35-.214-.59-.43-1.15-.666-1.684-1.03-2.344-2.258-4.22-3.772-5.63-1.5-1.396-3.415-2.35-5.513-2.35-.374 0-.74.032-1.09.088-.148.022-.292.073-.437.104-.2.047-.405.087-.603.147-.263.086-.52.2-.775.318-.065.03-.138.05-.2.082-.3.147-.586.325-.864.505-.012.016-.03.02-.038.03-.87.59-1.62 1.344-2.222 2.192 0 0-.005 0-.005.007-.156.22-.3.45-.434.68-.04.068-.086.133-.128.197 0 .006-.004.01-.004.01-1.423 2.45-2.156 5.542-2.254 9.27-.006.302-.015.598-.026.876-.014-.046-.023-.09-.03-.138-.636-3.112-1.11-7.196-1.253-12.063-.01-.42-.02-.848-.033-1.278-.01-.574-.018-1.144-.018-1.734.005-7.564-4.59-13.165-10.193-17.4l-.29-.2c-.497-.303-.99-.604-1.492-.902-.02-.01-.04-.024-.05-.037-3.203-1.94-6.483-3.903-9.81-5.867-.066-.042-.14-.08-.215-.122-.065-.043-.136-.08-.205-.12-1.875-1.105-3.767-2.21-5.684-3.31-.034-.022-.065-.04-.096-.053-.316-.18-.626-.36-.942-.542-.006-.004-.013-.01-.02-.013-1.67-.958-3.353-1.908-5.045-2.87-.046-.027-.095-.052-.14-.078-.32-.18-.632-.36-.95-.537-.01-.004-.018-.01-.027-.013-5.913-3.327-11.938-6.597-18.016-9.754-.012-.007-.02-.014-.032-.02-.222-.114-.447-.232-.67-.346l-.013-.004c-1.913-.993-3.832-1.975-5.75-2.937l-.026-.013c-.15-.076-.298-.15-.447-.227-.015-.005-.028-.014-.04-.02-1.996-1.002-3.993-1.99-5.993-2.955-.002 0-.004-.003-.007-.003-.04-.02-.08-.038-.122-.056-.016-.006-.03-.017-.047-.023-1.257-.608-2.515-1.21-3.773-1.806l-.302-.142c-1.214-.572-2.427-1.137-3.64-1.696-.08-.036-.16-.07-.237-.11-6.532-2.998-13.025-5.77-19.4-8.237l-.073-.03C43.15 56.98 36.18 54.608 29.48 52.75c11.793-6.24 29.845-11.965 45.873-16.142C85.1 34.05 94.15 32.004 100.756 30.6c4.37-.93 7.654-1.573 9.38-1.905.596.42 1.18.848 1.77 1.276 11.397 8.257 21.548 18.666 30.432 29.85-4.872-1.09-8.806-.75-9.38 1-.695 2.116 3.795 5.49 10.036 7.536 2.458.803 4.805 1.278 6.807 1.436 11.02 15.59 19.703 31.854 25.966 45.347.074.163.16.324.26.473 4.636 8.536 7.954 15.634 10.352 21.662.44 1.104.855 2.175 1.233 3.203l.055.152c1.162 3.175 2.06 6.016 2.75 8.587.068.274.142.548.217.818 2.09 8.13 2.187 13.57 2.525 18.967.03.615.043 1.225.043 1.808.033 3.98-.637 7.09-1.443 8.9z" fill="#9B9B9B" fill-rule="evenodd"/></svg>