<svg width="54.219" height="55" viewBox="0 0 48 48" xmlns="http://www.w3.org/2000/svg"><title>Group</title><g fill="#9B9B9B" fill-rule="evenodd"><path d="M47.5 46.5c0 .3-.1.5-.3.7-.3.3-.7.4-1.1.2l-45-18.6c-.3-.1-.4-.3-.5-.6-.1-.3-.1-.5 0-.8C5.8 15.7 14.3 6.4 25 .5c.2-.1.5-.2.8-.1.3.1.5.3.6.5l21.1 45v.6zM2.8 27.4l41.7 17.2L25 2.9c-9.6 5.5-17.2 14-22.2 24.5z"/><path d="M26.8 25.2c0 2.6-2.1 4.7-4.7 4.7s-4.7-2.1-4.7-4.7 2.1-4.7 4.7-4.7 4.7 2.1 4.7 4.7zm-7.3 0c0 1.5 1.2 2.7 2.7 2.7 1.5 0 2.7-1.2 2.7-2.7 0-1.5-1.2-2.7-2.7-2.7-1.5 0-2.7 1.2-2.7 2.7zM35.2 36.3c0 .3-.2.7-.5.8-.5.3-1.1.2-1.4-.3-.1-.2-.4-.4-.7-.5-.5-.1-.9-.7-.7-1.2.1-.5.7-.9 1.2-.7.8.2 1.4.7 1.8 1.3.3.2.3.4.3.6zM31.9 24c0 .3-.1.5-.3.7-.4.4-1 .4-1.4 0-.6-.6-1-1.2-1.4-1.9-.3-.5-.1-1.1.4-1.4.5-.3 1.1-.1 1.4.4.3.5.7 1.1 1.1 1.5.1.2.2.4.2.7zM25.4 13.2c0 .1 0 .2-.1.4-.2.5-.8.8-1.3.6-.3-.1-.7-.2-1.1-.2-.6 0-1-.4-1.1-.9-.1-.6.4-1 .9-1.1.7-.1 1.3 0 1.9.3.6.1.8.4.8.9zM14.1 24.2c0 .5-.4 1-.9 1-.9.1-1.9-.4-2.4-1.2-.3-.5-.2-1.1.3-1.4.5-.3 1.1-.2 1.4.3.1.2.4.3.6.3.5-.1 1 .3 1 1z"/></g></svg>