<svg width="51.956" height="55" viewBox="0 0 200 200" xmlns="http://www.w3.org/2000/svg"><title>Paprika</title><path d="M5.77 199.702c-1.192 0-2.207-.298-3.083-1.02-.77-.635-2.813-2.32-2.68-5.178.162-3.526 3.583-7.347 11.438-12.774 9.52-6.58 17.772-8.107 34.21-11.15 6.65-1.233 14.93-2.766 25.286-5.004 34.55-7.465 45.624-17.105 63.436-44.23 16.83-25.63 17.73-46.436 17.775-48.116-1.075-.627-1.664-1.853-1.376-3.073.102-.43 1.16-4.373 6.847-9.916 5.01-4.88 6.54-6.677 8.482-15.452.226-1.023.447-2.04.667-3.052 1.875-8.637 3.647-16.796 8.11-25.893 5.1-10.395 10.325-15.37 15.497-14.8 3.096.345 7.395 1.404 8.972 6.616 1.162 3.845-1.017 7.02-2.588 8.388-.846.87-8.575 8.952-10.634 16.516-1.558 5.722-2.984 14.964-1.873 22.18 1.214 7.885 6.05 20.96 6.1 21.09.5 1.352-.146 2.816-1.46 3.463.46 1.925.807 4.7.593 8.51-.573 10.203-4.505 24.667-9.785 35.994-5.025 10.782-23.556 46.898-51.017 59.026-27.446 12.12-49.625 13.725-64.302 14.786-11.185.81-17.763-.194-24.126-1.165-3.263-.5-6.345-.97-10.007-1.188-5.58-.334-11.703 1.765-16.626 3.45-3.255 1.116-5.814 1.992-7.855 1.992zm152.4-125.527c-.47 6.19-3.163 25.68-18.58 49.16-18.533 28.22-30.852 38.94-67.27 46.808-10.45 2.26-18.782 3.8-25.477 5.04-16.027 2.97-23.342 4.324-31.76 10.14-9.106 6.292-8.968 8.427-8.966 8.448.005.012.03.065.133.178 1.127-.184 3.484-.99 5.27-1.603 5.174-1.772 12.262-4.202 19.122-3.79 3.96.237 7.337.753 10.603 1.25 6.005.918 12.214 1.865 22.668 1.11 14.23-1.03 35.733-2.585 62.16-14.257 25.534-11.278 43.213-45.822 48.024-56.14 5.016-10.76 8.747-24.428 9.285-34.012.226-4.035-.293-6.52-.688-7.772-1.03-.186-2.372-.334-3.374-.16-1.49.26-2.33.995-2.366 1.026-.664.702-1.593.99-2.582.882-.995-.11-1.805-.73-2.277-1.556-.017-.03-2.233-3.792-5.688-5.352-1.77-.797-5.442-.215-8.236.6zm5.848-6.688c1.765 0 3.523.255 5.05.943 2.938 1.326 5.176 3.528 6.604 5.256.725-.298 1.57-.563 2.528-.73 1.735-.3 3.606-.158 5.07.068-1.594-4.637-4.176-12.676-5.07-18.468-1.235-8.034.223-17.873 2-24.4 2.56-9.4 11.777-18.694 12.17-19.086.067-.068.14-.132.213-.194.105-.094 1.32-1.214.88-2.662-.478-1.583-1.125-2.198-3.807-2.495-.862-.106-4.46 1.808-9.216 11.504-4.168 8.498-5.872 16.343-7.676 24.648-.22 1.02-.444 2.043-.672 3.074-2.2 9.94-4.26 12.6-10.055 18.25-2.167 2.112-3.48 3.88-4.256 5.14 1.795-.448 4.022-.85 6.238-.85z" fill="#DA3939" fill-rule="evenodd"/></svg>