<svg width="38" height="50" viewBox="0 0 38 99" xmlns="http://www.w3.org/2000/svg"><title>Imported Layers</title><g fill="#DA3939" fill-rule="evenodd"><path d="M19.362 44.84C9.09 44.84.732 34.784.732 22.42.733 10.06 9.09 0 19.363 0 29.632 0 37.99 10.058 37.99 22.42c0 12.364-8.358 22.42-18.628 22.42zm0-40.126C11.69 4.714 5.45 12.658 5.45 22.42c0 9.762 6.24 17.706 13.912 17.706 7.672 0 13.914-7.944 13.914-17.705 0-9.762-6.242-17.706-13.914-17.706z"/><path d="M19.362 99c-1.304 0-2.358-1.054-2.358-2.357v-54.16c0-1.3 1.054-2.357 2.358-2.357 1.303 0 2.357 1.056 2.357 2.357v54.16c0 1.303-1.055 2.357-2.358 2.357"/></g></svg>