<svg xmlns="http://www.w3.org/2000/svg" width="55" height="53.17" viewBox="0 0 55 53.17"><path fill-rule="evenodd" clip-rule="evenodd" fill="#9B9C9B" d="M46.944 42.55c-2.578 3.59-7.222 7.872-14.718 7.872h-9.452c-7.57 0-12.212-4.28-14.775-7.868-2.93-4.104-4.76-9.607-5.163-15.378 1.34.386 3.274.73 6.036 1.04 4.984.563 11.6.873 18.627.873 7.028 0 13.643-.31 18.627-.873 2.76-.31 4.694-.653 6.035-1.04-.407 5.75-2.258 11.25-5.218 15.374zM5.724 20.168c1.61-1.796 4.175-2.713 6.862-2.093.43.1.87-.048 1.2-.33.333-.283.506-.745.477-1.18-.005-.066-.01-.135-.01-.204 0-2.252 1.832-4.085 4.086-4.085 1.323 0 2.572.65 3.34 1.74.22.31.557.517.933.57.377.054.76-.052 1.055-.292.342-.276.907-.605 1.664-.605.533 0 1.05.157 1.492.455.304.205.677.28 1.037.208.36-.07.678-.282.878-.59 1.178-1.78 2.67-2.65 4.557-2.65 1.283 0 2.502.405 3.524 1.075l-1.382 8.526c-.12.75.39 1.457 1.137 1.578.076.012.15.018.223.018.663 0 1.246-.48 1.356-1.155l1.007-6.22c.287.66.46 1.364.46 2.094 0 .168-.012.333-.025.496-.052.61.302 1.18.873 1.4.572.217 1.22.038 1.59-.45.17-.22.367-.406.565-.59l-2.34 4.48c-.35.673-.09 1.505.583 1.856.202.106.42.157.634.157.496 0 .975-.268 1.22-.738l3.627-6.94c2.27.297 4.036 2.224 4.036 4.574 0 .616-.11 1.316-.276 1.965-.004.02-.018.033-.022.054-.004.013 0 .028-.003.043-.18.668-.424 1.27-.688 1.653-4.047.707-11.694 1.352-21.893 1.352-11.6 0-19.91-.833-23.36-1.646-.012-1.76.506-3.32 1.585-4.525zM53.03 22.58c.067-.49.102-.942.102-1.31 0-3.403-2.328-6.248-5.467-7.1l6.35-12.158c.352-.672.092-1.503-.582-1.855-.67-.35-1.504-.092-1.855.583l-6.91 13.23c-.924.134-1.802.434-2.597.893-.406-1.444-1.213-2.744-2.283-3.803l1.533-9.464C41.44.846 40.932.14 40.183.02c-.77-.122-1.457.388-1.578 1.138l-1.32 8.146c-1.214-.59-2.565-.94-3.99-.94-2.417 0-4.51.997-6.117 2.9-1.313-.477-2.828-.42-4.1.176-1.264-1.215-2.96-1.914-4.738-1.914-3.36 0-6.163 2.437-6.73 5.635-3.09-.193-5.995 1.012-7.932 3.172-1.14 1.272-1.87 2.79-2.168 4.477-.81.305-1.51.78-1.51 1.956 0 7.19 2.1 14.257 5.76 19.385 4.214 5.9 10.095 9.02 17.012 9.02h9.454c6.857 0 12.717-3.117 16.95-9.016C52.88 39 55 31.934 55 24.766c0-1.27-.935-1.848-1.97-2.186z"/></svg>