<svg width="54.219" height="55" viewBox="0 0 94 79" xmlns="http://www.w3.org/2000/svg"><title>Rice-Roti</title><g fill="none" fill-rule="evenodd"><path d="M37.843 63.023c-.093-.017-.378-.045-.456-.06-.23-.042-.45.112-.492.342-.016.098.008.193.05.273-.038.05-.085.107-.078.174.064.49 1.11.368 1.318-.24.074-.22-.11-.45-.342-.49M78.308 62.629c-.07-.013-.216-.28-.273-.29-.175-.032-.21.15-.242.326-.012.077-.126.08-.093.14-.028.04-.066.08-.06.13.046.372.844.282 1-.18.055-.168-.158-.097-.332-.127M85.552 63.53c-.07-.013-.214-.28-.273-.29-.177-.032-.21.153-.24.327-.015.076-.13.078-.096.14-.028.038-.066.083-.06.133.048.37.844.278 1-.183.058-.166-.16-.095-.332-.126M71.886 65.45c-.118-.02-.323-.375-.422-.394-.293-.052-.573.142-.625.437-.022.123.006.244.063.347-.047.066-.18.25-.1.22.844-.313 1.416.47 1.677-.304.095-.28-.302-.254-.594-.306M62.337 62.773c.092-.076.493-.007.572-.073.227-.19.255-.53.065-.758-.08-.097-.192-.152-.308-.173-.02-.08-.582-.108-.61-.027-.302.85-.763.593-.338 1.29.156.253.39-.067.617-.26M46.987 62.86c.02.077-.15.29-.138.358.04.194.23.32.424.28.086-.017.15-.067.2-.126.052.014.25-.31.21-.352-.405-.446-.106-.636-.65-.608-.2.012-.085.252-.047.447M56.126 66.01c.014.08-.154.295-.14.36.038.196.228.32.425.282.084-.02.15-.067.2-.126.053.012.247-.31.21-.352-.404-.45-.108-.636-.65-.608-.2.01-.084.25-.044.444M22.864 24.81c1.658.408 2.845 1.866 2.73 2.555-1.108.085-3.73-2.798-2.73-2.554M29.716 35.2c-.364-1.668.425-3.375 1.097-3.57.563.957-.88 4.577-1.097 3.57M40.16 24.897c1.68.297 2.963 1.677 2.89 2.37-1.1.16-3.903-2.548-2.89-2.37M39.935 36.368c.82-1.496 2.537-2.268 3.17-1.976-.2 1.09-3.663 2.88-3.17 1.976M60.363 35.226c.82-1.496 2.534-2.268 3.17-1.976-.2 1.09-3.664 2.878-3.17 1.976M13.66 35.437c1.295-1.11 3.174-1.228 3.666-.73-.575.95-4.447 1.4-3.665.73" fill="#DA3939"/><path d="M91.09 68.806c-1.006 0-1.868.63-2.213 1.513-2.007 1.196-12.262 3.207-30.286 3.207-17.792 0-27.998-1.96-30.188-3.16-.09-.162-.197-.3-.32-.438-.42-.666-1.145-1.124-1.988-1.124-.143 0-.264.057-.394.08-12.486-3.013-18.83-16.02-19.92-28.395 4.677 1.298 13.78 2.37 31.553 2.37 17.78 0 26.882-1.072 31.556-2.37-.514 6.064-2.236 11.783-4.984 16.533-1.68-.033-3.448-.05-5.315-.05-30.342 0-34.873 4.447-34.873 7.095 0 2.65 4.53 7.096 34.874 7.096 30.346 0 34.873-4.446 34.873-7.096 0-2.302-3.432-5.962-24.263-6.878 2.933-5.933 4.553-12.932 4.61-20.166.012-.14.012-.27.012-.385 0-1.823-1.178-2.725-2.52-3.25.05-.477.083-.934.083-1.318 0-3.81-2.118-7.1-5.215-8.86L78.144 3.7c.69-1.117.338-2.58-.78-3.268-1.115-.682-2.583-.338-3.27.78l-12.68 20.664c-.087-.003-.168-.027-.256-.027-1.574 0-3.092.354-4.457 1.02-1.655-4.722-6.39-8.233-11.803-8.233-3.204 0-5.995 1.27-8.17 3.696-1.634-.5-3.465-.427-5.054.22-1.724-1.526-3.962-2.396-6.303-2.396-4.5 0-8.277 3.138-9.26 7.337-3.98-.068-7.78 1.526-10.32 4.354-1.463 1.634-2.434 3.62-2.885 5.802C1.933 34.06.837 34.84.837 36.64c0 .113.003.24.015.377C.973 52.349 8.62 70.065 25.2 73.65c2.977 2.293 11.408 4.627 33.39 4.627 30.346 0 34.873-4.446 34.873-7.096 0-1.31-1.06-2.374-2.372-2.374zm-32.5-2.392c-14.123 0-23.478-1.235-27.83-2.346 4.352-1.11 13.707-2.344 27.83-2.344 14.125 0 23.48 1.235 27.83 2.344-4.35 1.11-13.705 2.346-27.83 2.346zm8.045-34.342c0 .755-.142 1.64-.354 2.456-.003.02-.02.035-.022.056-.005.017 0 .03-.003.048-.187.694-.425 1.318-.68 1.755-2.034.347-4.75.677-8.08.96l6.198-10.1c1.738.918 2.942 2.725 2.942 4.825zM9.33 31.015c1.958-2.19 5.072-3.318 8.397-2.55.743.168 1.506-.055 2.078-.545.572-.49.876-1.26.82-2.01l-.012-.25c0-2.623 2.132-4.756 4.757-4.756 1.54 0 2.994.756 3.887 2.024.38.54.962.895 1.61.986.654.09 1.31-.09 1.822-.504.375-.302.992-.66 1.812-.66.58 0 1.142.17 1.62.494.53.354 1.172.49 1.792.358.623-.12 1.166-.49 1.518-1.016 1.423-2.156 3.21-3.2 5.465-3.2 4.092-.002 7.683 3.335 7.683 7.143 0 .207-.017.41-.033.614-.083 1.05.534 2.03 1.522 2.405.987.372 2.1.056 2.735-.782.288-.38.625-.703.986-.988l-6.117 9.966c-4.195.225-9 .365-14.34.365-14.602 0-25.285-1.027-29.94-2.036.08-1.965.718-3.698 1.936-5.06z" fill="#9B9B9B"/></g></svg>