<svg width="51.956" height="55" viewBox="0 0 198 192" xmlns="http://www.w3.org/2000/svg"><title>Jalapeno</title><g fill-opacity=".9" fill="#DA3939" fill-rule="evenodd"><path d="M192.31 170.4c-4.21-3.6-10.575-6.78-17.265-10l-.08-.04c-15.422-7.408-38.723-18.61-60.585-42.786-12.934-14.302-23.018-35.21-30.385-50.483l-.202-.414c-4.655-9.6-8.332-17.183-11.706-21.3-7.875-9.512-23.994-14.5-40.467-6.65-4.872-10.28-2.004-13.508 4.066-19.178 3.442-3.216 1.91-5.985-.19-9.526-.785-1.332-2.845-4.683-4.928-7.01C26.86-1.13 23.548.485 22.3 1.483c-1.495 1.193-5.645 5.138-6.194 5.732-5.548 5.984-8.25 12.14-8.42 20.813-.145 7.62 1.938 15.716 5.914 23.224C8.754 55.88 3.16 62.797.626 75.12c-3.5 17.073 8.43 35.897 19.058 48.682 13.297 16.003 32.03 31.53 51.403 42.603 24.41 13.96 53.972 19.877 69.42 22.165 11.31 1.675 22.298 2.52 31.47 2.52 8.362 0 15.215-.7 19.433-2.11 2.864-.96 4.626-2.29 5.402-4.084 2.224-5.17.71-10.047-4.5-14.497zm-2.863 12.285c-4.68 1.833-19.387 2.964-42.436.08-16.232-2.03-47.252-7.606-72.637-22.116-18.706-10.69-36.78-25.667-49.592-41.083-13.703-16.493-19.978-31.8-17.657-43.104 1.99-9.662 5.996-15.297 10-19.367 4.352 6.615 9.83 14.294 10.963 15.886.65.903 1.67 1.386 2.7 1.386.67 0 1.344-.2 1.93-.62 1.49-1.063 1.834-3.138.77-4.626-1.23-1.716-7.57-10.615-11.963-17.43-4.795-7.47-7.358-15.83-7.206-23.53.134-6.814 3.41-12.67 6.98-16.817 3.63-4.222 6.14-1.78 7.266-.055 1.178 1.805 2.732 3.23.297 5.734-3.49 3.59-5.616 6.456-6.277 10.664-.752 4.79.877 10.27 5.633 18.913.024.04.046.08.068.12 2.93 4.835 10.668 15.723 12.194 17.857 1.063 1.495 3.136 1.837 4.626.774 1.495-1.06 1.837-3.138.776-4.626-.842-1.182-7.765-10.897-11.112-16.145 13.308-6.184 26.057-2.388 32.19 5.02 2.872 3.5 6.395 10.77 10.86 19.98l.2.412c7.537 15.63 17.86 37.032 31.432 52.043 22.74 25.14 46.75 36.68 62.634 44.317l.08.042c6.04 2.895 12.233 5.99 15.835 9.06 3.623 3.083 4.22 6.147 1.447 7.23z"/><path d="M58.71 48.142c-3.23-1.814-7.245-1.76-11.017.147-1.635.827-2.29 2.825-1.46 4.458.825 1.635 2.82 2.288 4.456 1.462 1.764-.895 3.502-.998 4.768-.284 1.12.627 1.807 1.824 1.928 3.374.274 3.468-5.157 10.207-7.466 12.43-1.85 1.783-3.618 3.234-5.137 4.212-7.382 4.833-20.734 10.83-25.115 6.345-.2-.198-.402-.503-.397-1.21.014-1.834-1.463-3.33-3.296-3.344h-.022c-1.824 0-3.306 1.473-3.32 3.297-.012 2.325.78 4.367 2.294 5.906 2.527 2.59 5.85 3.567 9.43 3.567 9.65 0 21.17-7.117 24.04-8.996 1.855-1.194 3.974-2.925 6.126-4.998.103-.1 10.106-9.828 9.48-17.733-.295-3.765-2.223-6.915-5.29-8.635z"/></g></svg>