<?xml version="1.0" encoding="utf-8"?>
<!-- Generator: Adobe Illustrator 16.0.0, SVG Export Plug-In . SVG Version: 6.00 Build 0)  -->
<!DOCTYPE svg PUBLIC "-//W3C//DTD SVG 1.1//EN" "http://www.w3.org/Graphics/SVG/1.1/DTD/svg11.dtd">
<svg version="1.1" id="Layer_1" xmlns="http://www.w3.org/2000/svg" xmlns:xlink="http://www.w3.org/1999/xlink" x="0px" y="0px"
	 width="200px" height="59.25px" viewBox="0 0 200 59.25" enable-background="new 0 0 200 59.25" xml:space="preserve">
<g>
	<g>
		<path d="M51.257,26.86l-0.033-0.837c-0.005-0.128-0.011-0.251-0.017-0.37l-0.564-13.282l-12.239,7.776l11.075,5.784
			c0.35,6.121-2.343,10.562-5.23,13.525c0.096,0.314,0.152,0.646,0.169,0.988c5.698-4.496,6.763-10.188,6.814-13.599L51.257,26.86z"
			/>
		<path d="M58.317,7.254l-0.112,0.094V7.254l-6.216,4.312v5.487l4.464-2.975c6.926,26.813-15.959,44.088-15.959,44.088
			C73.115,35.799,58.317,7.254,58.317,7.254z"/>
		<path d="M24.514,14.143l5.369,3.575l-0.387,9.142l12.855-6.713L22.671,7.254c0,0-14.801,28.545,17.823,50.912
			C40.494,58.166,17.645,40.918,24.514,14.143z"/>
		<path d="M43.415,30.313c0,1.686-1.366,3.053-3.053,3.053c-1.685,0-3.05-1.367-3.05-3.053c0-1.683,1.365-3.05,3.05-3.05
			C42.049,27.263,43.415,28.629,43.415,30.313z"/>
		<circle cx="40.364" cy="40.639" r="3.051"/>
		<circle cx="52.011" cy="4.169" r="3.084"/>
	</g>
	<g>
		<polygon points="67.056,16.884 73.823,16.884 73.823,36.828 75.551,36.828 75.551,16.884 82.278,16.884 82.278,15.156 
			67.056,15.156 		"/>
		<polygon points="102.455,32.764 90.808,32.764 90.808,15.116 89.079,15.116 89.079,36.867 90.808,36.867 90.808,34.49 
			102.455,34.49 102.455,36.867 104.183,36.867 104.183,15.116 102.455,15.116 		"/>
		<path d="M121.336,15.116c-5.986,0-10.854,4.869-10.854,10.854c0,6.008,4.868,10.896,10.854,10.896
			c5.988,0,10.856-4.889,10.856-10.896C132.192,19.985,127.324,15.116,121.336,15.116z M121.336,35.141
			c-5.032,0-9.128-4.115-9.128-9.17c0-5.033,4.096-9.127,9.128-9.127c5.035,0,9.13,4.095,9.13,9.127
			C130.466,31.025,126.371,35.141,121.336,35.141z"/>
		<path d="M174.633,25.792v1.727h4.15v3.867c-0.29,0.363-0.59,0.734-0.919,1.061c-0.855,0.855-1.84,1.525-2.929,1.992
			c-1.07,0.459-2.282,0.701-3.505,0.701c-1.266,0-2.461-0.236-3.55-0.701c-1.089-0.469-2.074-1.137-2.926-1.992
			c-0.833-0.834-1.49-1.805-1.951-2.883c-0.473-1.142-0.701-2.304-0.701-3.552c0-1.231,0.235-2.428,0.699-3.545
			c0.463-1.044,1.122-2.019,1.947-2.888c0.883-0.841,1.867-1.499,2.93-1.955c1.095-0.464,2.288-0.7,3.552-0.7
			c1.218,0,2.43,0.242,3.511,0.702c0.826,0.333,1.545,0.763,2.134,1.278l0.224,0.194l1.174-1.303l-0.248-0.198
			c-1.94-1.548-4.354-2.401-6.794-2.401c-5.986,0-10.856,4.852-10.856,10.815c0,5.986,4.87,10.855,10.856,10.855
			c3.614,0,6.99-1.813,9.03-4.846l0.05-0.076v-6.153H174.633z"/>
		<polygon points="147.126,15.156 145.618,15.156 145.318,15.197 145.318,15.441 137.083,36.867 138.935,36.867 146.222,17.903 
			153.437,36.674 153.51,36.867 155.36,36.867 147.126,15.456 		"/>
	</g>
	<g>
		<path d="M66.666,41.469h0.995l0.907,1.75l0.904-1.75h0.982l-1.425,2.76v2.107h-0.934v-2.107L66.666,41.469z"/>
		<path d="M74.732,41.346c0.689,0,1.282,0.248,1.777,0.746c0.496,0.5,0.743,1.107,0.743,1.824c0,0.711-0.244,1.313-0.733,1.805
			s-1.083,0.738-1.78,0.738c-0.731,0-1.338-0.252-1.821-0.758s-0.726-1.105-0.726-1.801c0-0.465,0.112-0.895,0.338-1.283
			c0.226-0.391,0.535-0.701,0.93-0.93C73.854,41.459,74.278,41.346,74.732,41.346z M74.723,42.252c-0.45,0-0.829,0.156-1.136,0.469
			c-0.308,0.314-0.46,0.713-0.46,1.195c0,0.539,0.192,0.965,0.578,1.277c0.301,0.246,0.646,0.369,1.034,0.369
			c0.44,0,0.814-0.16,1.123-0.479c0.31-0.316,0.465-0.709,0.465-1.174c0-0.463-0.156-0.855-0.468-1.176
			C75.548,42.412,75.169,42.252,74.723,42.252z"/>
		<path d="M79.313,41.469h0.931v3.148c0,0.27,0.023,0.461,0.071,0.574c0.048,0.111,0.126,0.203,0.235,0.27s0.24,0.102,0.396,0.102
			c0.162,0,0.304-0.039,0.422-0.113c0.117-0.074,0.199-0.17,0.244-0.287c0.046-0.115,0.067-0.336,0.067-0.662v-3.031h0.931v2.902
			c0,0.488-0.027,0.83-0.083,1.02c-0.055,0.189-0.16,0.371-0.315,0.549c-0.156,0.176-0.335,0.307-0.538,0.391
			c-0.203,0.086-0.439,0.129-0.708,0.129c-0.353,0-0.661-0.082-0.923-0.244c-0.261-0.162-0.447-0.365-0.561-0.609
			c-0.112-0.242-0.169-0.654-0.169-1.234V41.469z"/>
		<path d="M84.969,41.469h0.982c0.538,0,0.921,0.047,1.148,0.143c0.229,0.096,0.411,0.256,0.551,0.479
			c0.139,0.223,0.209,0.486,0.209,0.791c0,0.32-0.077,0.588-0.23,0.803s-0.385,0.377-0.693,0.488l1.153,2.164h-1.013l-1.096-2.063
			h-0.084v2.063h-0.928V41.469z M85.896,43.371h0.29c0.295,0,0.498-0.039,0.608-0.117c0.111-0.078,0.167-0.205,0.167-0.385
			c0-0.105-0.027-0.199-0.083-0.277c-0.055-0.078-0.129-0.135-0.221-0.17c-0.093-0.033-0.262-0.051-0.508-0.051h-0.254V43.371z"/>
		<path d="M97.65,42.322l-0.647,0.619c-0.441-0.467-0.938-0.699-1.489-0.699c-0.464,0-0.856,0.158-1.175,0.477
			c-0.319,0.318-0.479,0.711-0.479,1.176c0,0.324,0.071,0.613,0.212,0.865c0.142,0.252,0.341,0.449,0.599,0.594
			c0.258,0.143,0.544,0.215,0.859,0.215c0.27,0,0.516-0.051,0.738-0.15c0.222-0.102,0.467-0.283,0.734-0.549l0.628,0.656
			c-0.359,0.352-0.7,0.594-1.02,0.73c-0.319,0.135-0.686,0.203-1.096,0.203c-0.757,0-1.376-0.24-1.857-0.721
			c-0.482-0.48-0.724-1.096-0.724-1.844c0-0.486,0.108-0.918,0.328-1.295s0.534-0.682,0.943-0.91c0.41-0.23,0.851-0.344,1.322-0.344
			c0.402,0,0.789,0.084,1.161,0.254C97.061,41.77,97.382,42.01,97.65,42.322z"/>
		<path d="M101.167,41.469h0.94l1.871,4.867h-0.963l-0.381-1.002h-1.986l-0.396,1.002h-0.963L101.167,41.469z M101.643,42.758
			l-0.653,1.672h1.302L101.643,42.758z"/>
		<path d="M105.436,41.469h2.691v0.912h-0.888v3.955H106.3v-3.955h-0.864V41.469z"/>
		<path d="M109.985,41.469h2.657v0.906h-1.737v0.879h1.737v0.891h-1.737v1.281h1.737v0.91h-2.657V41.469z"/>
		<path d="M114.79,41.469h0.982c0.537,0,0.92,0.047,1.148,0.143c0.228,0.096,0.411,0.256,0.551,0.479
			c0.139,0.223,0.208,0.486,0.208,0.791c0,0.32-0.077,0.588-0.23,0.803c-0.152,0.215-0.384,0.377-0.693,0.488l1.154,2.164h-1.014
			l-1.095-2.063h-0.085v2.063h-0.927V41.469z M115.717,43.371h0.291c0.295,0,0.497-0.039,0.607-0.117
			c0.111-0.078,0.167-0.205,0.167-0.385c0-0.105-0.027-0.199-0.082-0.277c-0.056-0.078-0.129-0.135-0.221-0.17
			c-0.093-0.033-0.263-0.051-0.508-0.051h-0.255V43.371z"/>
		<path d="M119.813,41.469h0.92v4.867h-0.92V41.469z"/>
		<path d="M122.998,41.469h0.89l2.083,3.203v-3.203h0.927v4.867h-0.892l-2.081-3.193v3.193h-0.927V41.469z"/>
		<path d="M133.724,42.262l-0.651,0.645c-0.413-0.436-0.896-0.654-1.445-0.654c-0.479,0-0.881,0.16-1.203,0.477
			c-0.324,0.318-0.486,0.705-0.486,1.158c0,0.471,0.169,0.867,0.504,1.195c0.336,0.326,0.749,0.49,1.243,0.49
			c0.319,0,0.59-0.068,0.81-0.203s0.396-0.344,0.532-0.633h-1.411v-0.869h2.45l0.006,0.205c0,0.426-0.11,0.83-0.331,1.211
			c-0.221,0.383-0.506,0.674-0.856,0.873c-0.351,0.201-0.763,0.303-1.235,0.303c-0.505,0-0.955-0.109-1.352-0.33
			c-0.396-0.219-0.709-0.531-0.94-0.938c-0.23-0.406-0.346-0.844-0.346-1.314c0-0.645,0.214-1.205,0.64-1.682
			c0.505-0.566,1.162-0.85,1.973-0.85c0.424,0,0.819,0.078,1.188,0.234C133.122,41.713,133.426,41.939,133.724,42.262z"/>
		<path d="M139.256,41.469h0.983c0.531,0,0.915,0.049,1.15,0.146s0.42,0.256,0.556,0.477c0.135,0.219,0.203,0.482,0.203,0.789
			c0,0.34-0.089,0.623-0.266,0.848c-0.178,0.225-0.42,0.383-0.724,0.469c-0.179,0.051-0.504,0.076-0.977,0.076v2.063h-0.927V41.469z
			 M140.183,43.371h0.295c0.231,0,0.393-0.016,0.482-0.051c0.091-0.033,0.162-0.088,0.214-0.164s0.078-0.168,0.078-0.277
			c0-0.188-0.073-0.324-0.219-0.412c-0.106-0.064-0.302-0.096-0.589-0.096h-0.262V43.371z"/>
		<path d="M144.275,41.469h0.927v3.984h1.35v0.883h-2.276V41.469z"/>
		<path d="M149.964,41.469h0.939l1.872,4.867h-0.963l-0.381-1.002h-1.986l-0.396,1.002h-0.963L149.964,41.469z M150.439,42.758
			l-0.654,1.672h1.303L150.439,42.758z"/>
		<path d="M154.232,41.469h2.69v0.912h-0.887v3.955h-0.94v-3.955h-0.863V41.469z"/>
		<path d="M158.792,41.469h2.416v0.902h-1.496v0.883h1.496v0.891h-1.496v2.191h-0.92V41.469z"/>
		<path d="M165.551,41.346c0.689,0,1.281,0.248,1.777,0.746c0.495,0.5,0.743,1.107,0.743,1.824c0,0.711-0.245,1.313-0.734,1.805
			s-1.082,0.738-1.78,0.738c-0.73,0-1.338-0.252-1.82-0.758c-0.484-0.506-0.726-1.105-0.726-1.801c0-0.465,0.112-0.895,0.337-1.283
			c0.227-0.391,0.535-0.701,0.93-0.93C164.671,41.459,165.096,41.346,165.551,41.346z M165.54,42.252
			c-0.449,0-0.828,0.156-1.136,0.469c-0.307,0.314-0.46,0.713-0.46,1.195c0,0.539,0.192,0.965,0.579,1.277
			c0.301,0.246,0.646,0.369,1.033,0.369c0.44,0,0.814-0.16,1.124-0.479c0.309-0.316,0.464-0.709,0.464-1.174
			c0-0.463-0.156-0.855-0.468-1.176C166.366,42.412,165.987,42.252,165.54,42.252z"/>
		<path d="M170.228,41.469h0.982c0.537,0,0.921,0.047,1.148,0.143s0.411,0.256,0.551,0.479c0.139,0.223,0.208,0.486,0.208,0.791
			c0,0.32-0.077,0.588-0.23,0.803c-0.152,0.215-0.384,0.377-0.693,0.488l1.154,2.164h-1.014l-1.095-2.063h-0.084v2.063h-0.928
			V41.469z M171.155,43.371h0.29c0.295,0,0.498-0.039,0.608-0.117c0.111-0.078,0.166-0.205,0.166-0.385
			c0-0.105-0.026-0.199-0.082-0.277s-0.129-0.135-0.221-0.17c-0.093-0.033-0.263-0.051-0.508-0.051h-0.254V43.371z"/>
		<path d="M175.79,41.469h0.902l1.129,3.395l1.139-3.395h0.902l0.816,4.867h-0.896l-0.521-3.074l-1.034,3.074h-0.816l-1.025-3.074
			l-0.535,3.074h-0.903L175.79,41.469z"/>
	</g>
</g>
</svg>
