<?xml version="1.0" encoding="utf-8"?>
<!-- Generator: Adobe Illustrator 16.0.0, SVG Export Plug-In . SVG Version: 6.00 Build 0)  -->
<!DOCTYPE svg PUBLIC "-//W3C//DTD SVG 1.1//EN" "http://www.w3.org/Graphics/SVG/1.1/DTD/svg11.dtd">
<svg version="1.1" id="Layer_1" xmlns="http://www.w3.org/2000/svg" xmlns:xlink="http://www.w3.org/1999/xlink" x="0px" y="0px"
	 width="211.667px" height="84px" viewBox="0 0 211.667 84" enable-background="new 0 0 211.667 84" xml:space="preserve">
<g>
	<path fill="#FFFFFF" d="M44.899,38.539l-0.044-1.047c-0.005-0.16-0.011-0.314-0.02-0.462l-0.705-16.62l-15.317,9.73l13.858,7.236
		c0.439,7.658-2.929,13.217-6.544,16.924c0.121,0.395,0.19,0.809,0.211,1.236c7.133-5.626,8.462-12.748,8.527-17.016L44.899,38.539z
		"/>
	<path fill="#FFFFFF" d="M53.732,14.007l-0.141,0.117v-0.117l-7.776,5.396v6.865l5.587-3.722
		c8.664,33.55-19.972,55.167-19.972,55.167C72.25,49.725,53.732,14.007,53.732,14.007z"/>
	<path fill="#FFFFFF" d="M11.435,22.627l6.719,4.474l-0.485,11.438l16.087-8.399L9.128,14.007c0,0-18.52,35.718,22.303,63.706
		C31.431,77.713,2.838,56.131,11.435,22.627z"/>
	<circle fill="#FFFFFF" cx="31.268" cy="42.861" r="3.817"/>
	<circle fill="#FFFFFF" cx="31.268" cy="55.783" r="3.817"/>
	<circle fill="#FFFFFF" cx="45.842" cy="10.147" r="3.86"/>
</g>
<g>
	<polygon fill="#FFFFFF" points="64.668,26.057 73.137,26.057 73.137,51.013 75.298,51.013 75.298,26.057 83.716,26.057 
		83.716,23.895 64.668,23.895 	"/>
	<polygon fill="#FFFFFF" points="108.965,45.927 94.39,45.927 94.39,23.845 92.226,23.845 92.226,51.061 94.39,51.061 94.39,48.087 
		108.965,48.087 108.965,51.061 111.127,51.061 111.127,23.845 108.965,23.845 	"/>
	<path fill="#FFFFFF" d="M132.591,23.845c-7.49,0-13.584,6.093-13.584,13.582c0,7.518,6.094,13.634,13.584,13.634
		c7.491,0,13.585-6.116,13.585-13.634C146.176,29.938,140.082,23.845,132.591,23.845z M132.591,48.901
		c-6.299,0-11.424-5.147-11.424-11.474c0-6.297,5.125-11.421,11.424-11.421s11.423,5.124,11.423,11.421
		C144.014,43.753,138.89,48.901,132.591,48.901z"/>
	<path fill="#FFFFFF" d="M199.282,37.205v2.161h5.193v4.839c-0.362,0.454-0.738,0.917-1.149,1.326
		c-1.071,1.071-2.305,1.91-3.666,2.492c-1.34,0.574-2.856,0.878-4.387,0.878c-1.584,0-3.078-0.296-4.441-0.878
		c-1.363-0.584-2.595-1.422-3.66-2.492c-1.043-1.042-1.865-2.257-2.441-3.606c-0.592-1.43-0.879-2.883-0.879-4.445
		c0-1.542,0.296-3.038,0.875-4.437c0.579-1.306,1.404-2.526,2.438-3.613c1.104-1.053,2.337-1.876,3.666-2.447
		c1.368-0.581,2.862-0.875,4.442-0.875c1.525,0,3.043,0.303,4.394,0.878c1.034,0.417,1.933,0.956,2.671,1.601l0.278,0.243
		l1.47-1.631l-0.311-0.248c-2.428-1.937-5.447-3.004-8.502-3.004c-7.489,0-13.583,6.071-13.583,13.533
		c0,7.489,6.094,13.582,13.583,13.582c4.525,0,8.749-2.267,11.301-6.063l0.063-0.095v-7.699H199.282z"/>
	<polygon fill="#FFFFFF" points="164.861,23.895 162.976,23.895 162.601,23.946 162.601,24.252 152.296,51.061 154.612,51.061 
		163.73,27.332 172.759,50.821 172.851,51.061 175.167,51.061 164.861,24.27 	"/>
</g>
<g>
	<path fill="#FFFFFF" d="M69.683,60.685h-1.006l-0.398-1.04h-1.829l-0.378,1.04h-0.979l1.782-4.575h0.977L69.683,60.685z
		 M67.982,58.875l-0.632-1.698l-0.618,1.698H67.982z"/>
	<path fill="#FFFFFF" d="M82.05,59.001l0.896,0.285c-0.139,0.5-0.366,0.87-0.687,1.112c-0.319,0.241-0.724,0.363-1.215,0.363
		c-0.606,0-1.106-0.207-1.497-0.622c-0.392-0.415-0.587-0.982-0.587-1.703c0-0.761,0.197-1.352,0.59-1.773
		c0.393-0.421,0.91-0.632,1.551-0.632c0.56,0,1.015,0.165,1.363,0.497c0.208,0.194,0.364,0.476,0.468,0.842l-0.915,0.219
		c-0.053-0.238-0.166-0.425-0.337-0.562c-0.172-0.139-0.381-0.207-0.626-0.207c-0.34,0-0.614,0.122-0.824,0.365
		c-0.213,0.243-0.318,0.638-0.318,1.183c0,0.579,0.104,0.991,0.312,1.236c0.209,0.245,0.479,0.368,0.812,0.368
		c0.246,0,0.457-0.078,0.634-0.235C81.846,59.583,81.973,59.338,82.05,59.001z"/>
	<path fill="#FFFFFF" d="M91.569,60.685h-1.006l-0.398-1.04h-1.829l-0.377,1.04h-0.979l1.781-4.575h0.977L91.569,60.685z
		 M89.868,58.875l-0.631-1.698l-0.617,1.698H89.868z"/>
	<path fill="#FFFFFF" d="M96.321,60.685v-3.802h-1.358V56.11H98.6v0.773h-1.354v3.802H96.321z"/>
	<path fill="#FFFFFF" d="M102.901,60.685V56.11h3.391v0.773h-2.467v1.015h2.296v0.771h-2.296v1.245h2.555v0.771H102.901z"/>
	<path fill="#FFFFFF" d="M110.873,60.685V56.11h1.944c0.488,0,0.843,0.041,1.064,0.123s0.4,0.229,0.532,0.438
		c0.134,0.211,0.2,0.451,0.2,0.721c0,0.344-0.102,0.627-0.304,0.851c-0.201,0.224-0.502,0.364-0.904,0.423
		c0.2,0.116,0.365,0.244,0.494,0.383c0.131,0.141,0.307,0.388,0.527,0.743l0.558,0.894h-1.104l-0.668-0.996
		c-0.236-0.356-0.399-0.58-0.485-0.673c-0.089-0.093-0.181-0.155-0.278-0.19c-0.099-0.034-0.253-0.051-0.466-0.051h-0.188v1.91
		H110.873z M111.796,58.044h0.685c0.442,0,0.719-0.019,0.829-0.056s0.197-0.103,0.259-0.194c0.063-0.092,0.095-0.205,0.095-0.343
		c0-0.153-0.041-0.278-0.124-0.373s-0.197-0.154-0.348-0.179c-0.074-0.012-0.299-0.017-0.675-0.017h-0.721V58.044z"/>
	<path fill="#FFFFFF" d="M119.163,60.685V56.11h0.925v4.575H119.163z"/>
	<path fill="#FFFFFF" d="M124.683,60.685V56.11h0.897l1.873,3.055V56.11h0.857v4.575h-0.926l-1.845-2.984v2.984H124.683z"/>
	<path fill="#FFFFFF" d="M135.123,59.001v-0.77h1.991v1.822c-0.194,0.188-0.474,0.353-0.842,0.494
		c-0.367,0.143-0.739,0.214-1.115,0.214c-0.478,0-0.896-0.102-1.251-0.3c-0.355-0.201-0.624-0.489-0.802-0.862
		c-0.179-0.373-0.269-0.779-0.269-1.218c0-0.478,0.101-0.9,0.299-1.271c0.2-0.37,0.492-0.653,0.878-0.851
		c0.293-0.152,0.657-0.229,1.095-0.229c0.567,0,1.012,0.119,1.331,0.357c0.318,0.238,0.525,0.567,0.616,0.987l-0.918,0.172
		c-0.064-0.224-0.185-0.402-0.363-0.531c-0.178-0.131-0.4-0.196-0.666-0.196c-0.403,0-0.725,0.128-0.963,0.384
		c-0.237,0.256-0.356,0.637-0.356,1.14c0,0.542,0.12,0.949,0.36,1.222c0.241,0.271,0.559,0.407,0.95,0.407
		c0.193,0,0.387-0.038,0.582-0.114c0.194-0.076,0.36-0.168,0.5-0.275v-0.582H135.123z"/>
	<path fill="#FFFFFF" d="M147.154,60.685V56.11h1.481c0.563,0,0.929,0.022,1.099,0.069c0.263,0.067,0.482,0.217,0.658,0.447
		c0.177,0.229,0.266,0.525,0.266,0.891c0,0.28-0.051,0.518-0.152,0.708c-0.103,0.191-0.232,0.343-0.389,0.451
		c-0.157,0.11-0.317,0.182-0.479,0.218c-0.22,0.043-0.54,0.064-0.958,0.064h-0.602v1.727H147.154z M148.078,56.883v1.299h0.506
		c0.362,0,0.605-0.023,0.729-0.072c0.123-0.047,0.22-0.122,0.29-0.225c0.068-0.102,0.104-0.22,0.104-0.355
		c0-0.166-0.049-0.304-0.147-0.411c-0.097-0.109-0.221-0.177-0.371-0.203c-0.109-0.021-0.331-0.032-0.664-0.032H148.078z"/>
	<path fill="#FFFFFF" d="M158.773,60.685h-1.005l-0.398-1.04h-1.829l-0.378,1.04h-0.979l1.782-4.575h0.977L158.773,60.685z
		 M157.073,58.875l-0.631-1.698l-0.617,1.698H157.073z"/>
	<path fill="#FFFFFF" d="M162.995,60.685v-4.538h0.924v3.767h2.296v0.771H162.995z"/>
	<path fill="#FFFFFF" d="M171.135,60.685v-3.802h-1.357V56.11h3.637v0.773h-1.355v3.802H171.135z"/>
	<path fill="#FFFFFF" d="M177.722,60.685V56.11h3.135v0.773h-2.212v1.082h1.91v0.774h-1.91v1.945H177.722z"/>
	<path fill="#FFFFFF" d="M185.139,58.425c0-0.466,0.069-0.856,0.209-1.174c0.104-0.232,0.246-0.441,0.426-0.627
		s0.377-0.322,0.592-0.411c0.284-0.121,0.613-0.182,0.985-0.182c0.673,0,1.214,0.21,1.619,0.628
		c0.404,0.418,0.604,0.999,0.604,1.744c0,0.738-0.198,1.315-0.601,1.733c-0.402,0.417-0.938,0.625-1.61,0.625
		c-0.68,0-1.221-0.207-1.623-0.622C185.34,59.725,185.139,59.154,185.139,58.425z M186.09,58.394c0,0.519,0.119,0.911,0.358,1.178
		c0.24,0.268,0.544,0.401,0.911,0.401c0.369,0,0.672-0.133,0.907-0.397c0.236-0.267,0.354-0.663,0.354-1.193
		c0-0.524-0.115-0.916-0.345-1.175c-0.23-0.258-0.536-0.387-0.917-0.387c-0.38,0-0.688,0.132-0.919,0.393
		C186.206,57.474,186.09,57.867,186.09,58.394z"/>
	<path fill="#FFFFFF" d="M194.006,60.685V56.11h1.944c0.488,0,0.844,0.041,1.064,0.123c0.222,0.082,0.4,0.229,0.533,0.438
		c0.133,0.211,0.199,0.451,0.199,0.721c0,0.344-0.102,0.627-0.304,0.851c-0.201,0.224-0.502,0.364-0.904,0.423
		c0.2,0.116,0.365,0.244,0.494,0.383c0.131,0.141,0.307,0.388,0.527,0.743l0.559,0.894h-1.105l-0.667-0.996
		c-0.237-0.356-0.4-0.58-0.486-0.673c-0.089-0.093-0.181-0.155-0.278-0.19c-0.099-0.034-0.253-0.051-0.466-0.051h-0.188v1.91
		H194.006z M194.929,58.044h0.685c0.442,0,0.719-0.019,0.829-0.056s0.197-0.103,0.259-0.194c0.063-0.092,0.095-0.205,0.095-0.343
		c0-0.153-0.041-0.278-0.123-0.373c-0.083-0.095-0.198-0.154-0.348-0.179c-0.075-0.012-0.3-0.017-0.676-0.017h-0.721V58.044z"/>
	<path fill="#FFFFFF" d="M202.312,60.685V56.11h1.382l0.831,3.12l0.819-3.12h1.386v4.575h-0.857v-3.602l-0.909,3.602h-0.889
		l-0.905-3.602v3.602H202.312z"/>
</g>
</svg>
